<svg xmlns="http://www.w3.org/2000/svg" width="12" height="12" viewBox="0 0 12 12" fill="none">
  <path fill-rule="evenodd" clip-rule="evenodd" d="M5.73727 0C6.15057 0 6.48561 0.335043 6.48561 0.74834V4.98893H10.7262C11.1395 4.98893 11.4745 5.32398 11.4745 5.73727C11.4745 6.15057 11.1395 6.48561 10.7262 6.48561H6.48561V10.7262C6.48561 11.1395 6.15057 11.4745 5.73727 11.4745C5.32397 11.4745 4.98893 11.1395 4.98893 10.7262V6.48561H0.74834C0.335043 6.48561 0 6.15057 0 5.73727C0 5.32398 0.335043 4.98893 0.74834 4.98893H4.98893V0.74834C4.98893 0.335043 5.32397 0 5.73727 0Z" fill="white"/>
</svg>