<svg xmlns="http://www.w3.org/2000/svg" width="15" height="16" viewBox="0 0 15 16" fill="none">
  <path d="M2.30735 0.5H12.6926C13.3019 0.499601 13.8866 0.740351 14.3189 1.16965C14.7513 1.59896 14.9961 2.18192 15 2.79118V13.2088C14.9961 13.8181 14.7513 14.401 14.3189 14.8303C13.8866 15.2596 13.3019 15.5004 12.6926 15.5H2.30735C1.69808 15.5004 1.11342 15.2596 0.681085 14.8303C0.248753 14.401 0.00389355 13.8181 0 13.2088V2.79116C0.00388969 2.1819 0.248747 1.59895 0.68108 1.16965C1.11341 0.740349 1.69808 0.499601 2.30735 0.5Z" fill="#FC4514"/>
  <path d="M6.36946 11.6265C6.37024 11.7462 6.34723 11.865 6.30176 11.9758C6.25629 12.0866 6.18927 12.1872 6.10458 12.2719C6.0199 12.3566 5.91924 12.4236 5.80845 12.4691C5.69765 12.5146 5.57893 12.5376 5.45917 12.5368H4.67976C4.89495 12.4987 5.09027 12.3872 5.23241 12.2212C5.37454 12.0551 5.45469 11.845 5.45917 11.6265V4.4206C5.45917 4.30359 5.41268 4.19138 5.32995 4.10865C5.24721 4.02591 5.135 3.97943 5.01799 3.97943H3.66506C3.54805 3.97943 3.43584 4.02591 3.3531 4.10865C3.27037 4.19138 3.22388 4.30359 3.22388 4.4206V11.1853C3.22388 11.3023 3.27036 11.4145 3.35309 11.4973C3.43583 11.58 3.54804 11.6265 3.66505 11.6265H4.10623C4.16818 11.623 4.2302 11.6321 4.2885 11.6534C4.34679 11.6747 4.40013 11.7076 4.44524 11.7502C4.49035 11.7929 4.52628 11.8442 4.55085 11.9012C4.57541 11.9582 4.58808 12.0196 4.58808 12.0817C4.58808 12.1437 4.57541 12.2051 4.55085 12.2621C4.52628 12.3191 4.49035 12.3705 4.44524 12.4131C4.40013 12.4557 4.34679 12.4886 4.2885 12.5099C4.2302 12.5312 4.16818 12.5403 4.10623 12.5368H3.19741C3.07765 12.5376 2.95893 12.5146 2.84813 12.4691C2.73733 12.4236 2.63667 12.3566 2.55199 12.2719C2.4673 12.1872 2.40028 12.0866 2.35481 11.9758C2.30934 11.865 2.28633 11.7463 2.28711 11.6265V3.95737C2.29016 3.71689 2.38704 3.48712 2.5571 3.31707C2.72716 3.14701 2.95693 3.05012 3.19741 3.04707H5.45917C5.70214 3.05578 5.93238 3.15788 6.10195 3.33211C6.27152 3.50634 6.36734 3.73926 6.36946 3.98238V11.6265ZM12.7136 3.02061C12.7144 3.14037 12.6913 3.25909 12.6459 3.36988C12.6004 3.48068 12.5334 3.58134 12.4487 3.66603C12.364 3.75071 12.2634 3.81773 12.1526 3.8632C12.0418 3.90867 11.923 3.93169 11.8033 3.9309H8.63123C8.37093 3.9309 8.19005 4.11326 8.19005 4.42502V6.18972H12.6621C12.6581 6.39734 12.584 6.5975 12.4518 6.75769C12.3197 6.91787 12.1372 7.02867 11.9342 7.07208V12.0721C11.9346 12.1911 11.9114 12.309 11.8662 12.4191C11.8209 12.5291 11.7543 12.6292 11.6703 12.7135C11.5863 12.7978 11.4865 12.8647 11.3765 12.9103C11.2666 12.9559 11.1488 12.9794 11.0298 12.9794V7.07649H8.13711V12.0956C8.13692 12.2148 8.1132 12.3328 8.06731 12.4428C8.02142 12.5529 7.95427 12.6528 7.8697 12.7368C7.78513 12.8208 7.68481 12.8873 7.57449 12.9325C7.46417 12.9776 7.34602 13.0006 7.22681 13V3.9309C7.23041 3.68867 7.32685 3.45705 7.49623 3.28384C7.66561 3.11063 7.89502 3.00904 8.13711 3.00002H12.7136V3.02061Z" fill="white"/>
</svg>