<svg xmlns="http://www.w3.org/2000/svg" width="17" height="19" viewBox="0 0 17 19" fill="none">
  <path fill-rule="evenodd" clip-rule="evenodd" d="M11.39 16.49C11.305 16.49 11.2625 16.4475 11.2625 16.3625C11.305 16.0225 11.3475 15.6825 11.39 15.385C14.0675 14.2375 15.9375 11.6025 15.9375 8.5425C15.9375 4.42 12.6225 1.105 8.5 1.105C4.3775 1.105 1.0625 4.3775 1.0625 8.5C1.0625 11.6025 2.9325 14.2375 5.61 15.3425C5.6525 15.6825 5.695 16.0225 5.7375 16.32C5.7375 16.405 5.695 16.4475 5.61 16.4475C2.3375 15.3 0 12.155 0 8.5C0 3.7825 3.825 0 8.5 0C13.175 0 17 3.7825 17 8.5C17 12.155 14.6625 15.3 11.39 16.49ZM10.4975 7.82C10.4975 8.925 9.605 9.8175 8.5 9.8175C7.395 9.8175 6.5025 8.925 6.5025 7.82C6.5025 6.715 7.395 5.8225 8.5 5.8225C9.605 5.8225 10.4975 6.715 10.4975 7.82ZM8.5 3.9525C5.9925 3.9525 3.9525 5.9925 3.9525 8.5C3.9525 9.7325 4.4625 10.88 5.27 11.6875C5.27 12.0275 5.3125 12.4525 5.355 12.9625C5.355 13.005 5.355 13.0475 5.355 13.09C5.3125 13.2175 5.2275 13.26 5.185 13.2175C3.6975 12.155 2.72 10.455 2.72 8.5C2.72 5.3125 5.3125 2.72 8.5 2.72C11.6875 2.72 14.28 5.3125 14.28 8.5C14.28 10.455 13.3025 12.155 11.8575 13.2175C11.7725 13.26 11.6875 13.2175 11.6875 13.09C11.6875 13.0475 11.6875 13.005 11.6875 12.9625C11.73 12.4525 11.7725 12.0275 11.7725 11.6875C12.58 10.88 13.09 9.7325 13.09 8.5C13.0475 5.9925 11.0075 3.9525 8.5 3.9525ZM8.4575 10.625C8.4575 10.625 10.115 10.54 10.54 11.7725C10.54 11.7725 10.6675 12.1125 10.54 13.5575C10.4125 15.045 10.2 16.575 9.9875 17.68C9.775 18.785 8.6275 18.7 8.5 18.7425C8.3725 18.7 7.225 18.785 7.0125 17.68C6.8 16.575 6.5875 15.045 6.46 13.5575C6.3325 12.1125 6.46 11.7725 6.46 11.7725C6.8425 10.54 8.4575 10.625 8.4575 10.625Z" fill="white"/>
</svg>