<svg xmlns="http://www.w3.org/2000/svg" width="24" height="13" viewBox="0 0 24 13" fill="none">
  <path fill-rule="evenodd" clip-rule="evenodd" d="M20.8 0H2.22857C0.965714 0 0 0.965714 0 2.22857V10.7714C0 12.0343 0.965714 13 2.22857 13H20.8C22.0629 13 23.0286 12.0343 23.0286 10.7714V2.22857C23.0286 0.965714 22.0629 0 20.8 0Z" fill="url(#paint0_linear_26623_6088)"/>
  <path fill-rule="evenodd" clip-rule="evenodd" d="M20.8 0.742857H2.22857C0.965714 0.742857 0 1.70857 0 2.97143V2.22857C0 0.965714 0.965714 0 2.22857 0H20.8C22.0629 0 23.0286 0.965714 23.0286 2.22857V2.97143C23.0286 1.70857 22.0629 0.742857 20.8 0.742857Z" fill="white" fill-opacity="0.3"/>
  <path d="M4.38296 5.71997L3.93724 6.23997C3.49153 5.79426 2.97153 5.27426 2.30296 4.75426L2.82296 4.30855C3.41724 4.75426 3.93724 5.27426 4.38296 5.71997ZM4.6801 3.41712L4.1601 3.93712C3.71439 3.4914 3.19439 2.9714 2.45153 2.4514L2.97153 2.00569C3.6401 2.4514 4.23439 2.9714 4.6801 3.41712ZM4.60582 7.1314C4.1601 8.31997 3.6401 9.43426 3.04582 10.5485L2.37724 10.2514C2.97153 9.13712 3.49153 8.02283 3.93724 6.90855L4.60582 7.1314ZM7.42867 9.43426C6.7601 9.95426 5.94296 10.3257 5.05153 10.6971L4.60582 10.1771C5.49724 9.87997 6.31439 9.43426 6.98296 9.06283L7.42867 9.43426ZM10.9201 4.30855H10.2515V3.19426H5.64582V4.30855H4.97724V2.52569H7.50296C7.42867 2.30283 7.35439 2.07997 7.2801 1.85712L7.94867 1.70854C8.02296 1.9314 8.09724 2.22854 8.24582 2.4514H10.9201V4.30855ZM10.1772 3.93712V4.5314H8.24582V5.19997H10.4744V8.6914H5.34867V5.27426H7.57724V4.5314H5.64582V3.93712H10.1772ZM7.57724 6.68569V5.86855H6.01724V6.68569H7.57724ZM7.57724 7.27997H6.01724V8.1714H7.57724V7.27997ZM8.24582 6.68569H9.80582V5.86855H8.24582V6.68569ZM9.80582 7.27997H8.24582V8.1714H9.80582V7.27997ZM11.143 10.1028L10.7715 10.6971C10.0287 10.1771 9.28582 9.80569 8.54296 9.50855L8.91439 8.98855C9.73153 9.28569 10.4744 9.65712 11.143 10.1028Z" fill="white"/>
  <path d="M15.9715 10.2514V10.6971H15.3029V6.75996C15.1544 6.83425 15.0801 6.90853 14.9315 6.98282L14.6344 6.46282V6.61139C14.4115 6.68568 14.1144 6.75996 13.8172 6.90854V9.80568C13.8172 10.3257 13.5201 10.6228 13.0001 10.6228H12.1829L12.0344 9.95425C12.2572 9.95425 12.5544 10.0285 12.7772 10.0285C13.0001 10.0285 13.1486 9.87996 13.1486 9.65711V7.27996C12.7772 7.42853 12.4058 7.57711 12.0344 7.72568L11.8858 6.98282C12.3315 6.83425 12.7772 6.68568 13.1486 6.53711V4.30854H12.0344V3.71425H13.1486V1.85711H13.8172V3.71425H14.6344V4.38282H13.8172V6.31425C14.1144 6.09139 14.4115 5.94282 14.6344 5.79425V6.31425C15.6001 5.94282 16.3429 5.49711 16.7886 4.90282H14.9315V4.30854H16.0458C15.8972 4.01139 15.7486 3.71425 15.6001 3.49139L16.1944 3.26854C16.3429 3.56568 16.4915 3.93711 16.6401 4.30854H17.3829V2.89711C16.7144 2.97139 15.9715 2.97139 15.1544 2.97139L14.9315 2.37711C17.0115 2.37711 18.7201 2.22853 20.0572 1.85711L20.3544 2.45139C19.6858 2.59996 18.8686 2.74853 17.9772 2.82282V4.30854H18.7201C18.9429 3.93711 19.0915 3.49139 19.3144 3.04568L19.9086 3.26854C19.7601 3.63996 19.5372 4.01139 19.3886 4.30854H20.5772V4.90282H18.6458C19.1658 5.42282 19.9086 5.86853 20.8744 6.23996L20.5772 6.83425C19.5372 6.31425 18.7944 5.71996 18.1258 4.90282H17.9772V6.31425H17.3829V4.90282H17.3086C16.9372 5.57139 16.3429 6.16568 15.5258 6.61139H20.0572V10.6971H19.3886V10.2514H15.9715ZM15.9715 7.20568V8.17139H17.3829V7.20568H15.9715ZM15.9715 8.69139V9.65711H17.3829V8.76568H15.9715V8.69139ZM19.4629 8.17139V7.20568H18.0515V8.17139H19.4629ZM19.4629 9.65711V8.76568H18.0515V9.65711H19.4629Z" fill="white"/>
  <defs>
    <linearGradient id="paint0_linear_26623_6088" x1="11.5143" y1="12.9606" x2="11.5143" y2="1.13301" gradientUnits="userSpaceOnUse">
      <stop stop-color="#07AB02"/>
      <stop offset="1" stop-color="#0BBF20"/>
    </linearGradient>
  </defs>
</svg>