<svg width="22" height="22" viewBox="0 0 22 22" fill="none" xmlns="http://www.w3.org/2000/svg">
<g opacity="0.4">
<path fill-rule="evenodd" clip-rule="evenodd" d="M9.88147 4.8844C7.03375 4.8844 4.72522 7.19293 4.72522 10.0406C4.72522 12.8884 7.03375 15.1969 9.88147 15.1969C12.7292 15.1969 15.0377 12.8884 15.0377 10.0406C15.0377 7.19293 12.7292 4.8844 9.88147 4.8844ZM2.66272 10.0406C2.66272 6.05384 5.89466 2.8219 9.88147 2.8219C13.8683 2.8219 17.1002 6.05384 17.1002 10.0406C17.1002 14.0275 13.8683 17.2594 9.88147 17.2594C5.89466 17.2594 2.66272 14.0275 2.66272 10.0406Z" fill="#888888"/>
<path fill-rule="evenodd" clip-rule="evenodd" d="M13.6327 13.6566C14.0273 13.2459 14.6801 13.2328 15.0908 13.6274L19.0205 17.4032C19.4312 17.7978 19.4443 18.4506 19.0497 18.8613C18.6551 19.272 18.0023 19.285 17.5916 18.8904L13.6618 15.1147C13.2511 14.7201 13.2381 14.0673 13.6327 13.6566Z" fill="#888888"/>
</g>
</svg>
