<svg xmlns="http://www.w3.org/2000/svg" width="11" height="10" viewBox="0 0 11 10" fill="none">
  <path d="M4.08236 8.62646C4.08315 8.74622 4.06013 8.86495 4.01467 8.97574C3.9692 9.08654 3.90218 9.1872 3.81749 9.27188C3.73281 9.35657 3.63215 9.42359 3.52135 9.46906C3.41056 9.51453 3.29184 9.53754 3.17208 9.53676H2.39267C2.60786 9.49868 2.80318 9.38713 2.94532 9.22113C3.08745 9.05512 3.16759 8.84495 3.17208 8.62646V1.42058C3.17208 1.30357 3.12559 1.19136 3.04286 1.10862C2.96012 1.02589 2.8479 0.979409 2.7309 0.979409H1.37797C1.26096 0.979409 1.14875 1.02589 1.06601 1.10862C0.983274 1.19136 0.936791 1.30357 0.936787 1.42058V8.1853C0.936787 8.3023 0.983266 8.41452 1.066 8.49725C1.14874 8.57999 1.26095 8.62648 1.37795 8.62648H1.81914C1.88109 8.62295 1.94311 8.6321 2.00141 8.65337C2.0597 8.67465 2.11303 8.7076 2.15815 8.75022C2.20326 8.79283 2.23919 8.8442 2.26375 8.90119C2.28832 8.95817 2.30098 9.01957 2.30098 9.08163C2.30098 9.14368 2.28832 9.20508 2.26375 9.26207C2.23919 9.31906 2.20326 9.37043 2.15815 9.41304C2.11303 9.45565 2.0597 9.48861 2.00141 9.50988C1.94311 9.53116 1.88109 9.54031 1.81914 9.53678H0.910317C0.790557 9.53756 0.671833 9.51455 0.561038 9.46908C0.450242 9.42361 0.34958 9.35659 0.264895 9.2719C0.18021 9.18722 0.113188 9.08655 0.067718 8.97576C0.0222483 8.86496 -0.000763042 8.74624 1.92985e-05 8.62648V0.957349C0.003068 0.71687 0.0999529 0.487099 0.27001 0.317042C0.440068 0.146984 0.669839 0.0500994 0.910317 0.0470507H3.17208C3.41505 0.0557552 3.64529 0.157854 3.81486 0.332083C3.98443 0.506312 4.08025 0.739239 4.08236 0.982353V8.62646ZM10.4265 0.020581C10.4273 0.140341 10.4043 0.259065 10.3588 0.36986C10.3133 0.480656 10.2463 0.581318 10.1616 0.666003C10.0769 0.750688 9.97626 0.81771 9.86547 0.86318C9.75467 0.90865 9.63595 0.931661 9.51619 0.930879H6.34414C6.08384 0.930879 5.90296 1.11324 5.90296 1.425V3.1897H10.375C10.371 3.39732 10.2969 3.59748 10.1647 3.75766C10.0326 3.91785 9.85014 4.02864 9.64707 4.07206V9.07206C9.64746 9.19107 9.62435 9.30899 9.57907 9.41906C9.5338 9.52912 9.46724 9.62917 9.38322 9.71347C9.2992 9.79776 9.19937 9.86464 9.08946 9.91028C8.97954 9.95592 8.86169 9.97941 8.74268 9.97941V4.07647H5.85002V9.09558C5.84983 9.21479 5.8261 9.33279 5.78022 9.44282C5.73433 9.55284 5.66718 9.65273 5.58261 9.73675C5.49804 9.82077 5.39772 9.88727 5.2874 9.93244C5.17708 9.97762 5.05893 10.0006 4.93972 9.99999V0.930879C4.94332 0.688642 5.03976 0.457026 5.20914 0.283816C5.37852 0.110606 5.60792 0.00901423 5.85002 0H10.4265V0.020581Z" fill="white"/>
</svg>