<svg width="32" height="32" viewBox="0 0 32 32" fill="none" xmlns="http://www.w3.org/2000/svg">
<path d="M16.467 5.61051L26.9214 10.8377C27.0951 10.9245 27.2412 11.058 27.3433 11.2231C27.4454 11.3883 27.4994 11.5786 27.4994 11.7728C27.4994 11.967 27.4454 12.1573 27.3433 12.3225C27.2412 12.4877 27.0951 12.6212 26.9214 12.708L16.467 17.9351C16.322 18.0078 16.162 18.0456 15.9997 18.0456C15.8375 18.0456 15.6775 18.0078 15.5324 17.9351L5.07805 12.708C4.90436 12.6212 4.75828 12.4877 4.65618 12.3225C4.55408 12.1573 4.5 11.967 4.5 11.7728C4.5 11.5786 4.55408 11.3883 4.65618 11.2231C4.75828 11.058 4.90436 10.9245 5.07805 10.8377L15.5324 5.61051C15.6775 5.53784 15.8375 5.5 15.9997 5.5C16.162 5.5 16.322 5.53784 16.467 5.61051ZM25.9868 16.0649C26.2348 15.9408 26.5219 15.9203 26.785 16.0079C27.0482 16.0956 27.2657 16.2842 27.3897 16.5322C27.5138 16.7802 27.5343 17.0673 27.4467 17.3304C27.359 17.5935 27.1704 17.8111 26.9224 17.9351L16.4681 23.1623C16.323 23.235 16.163 23.2728 16.0008 23.2728C15.8385 23.2728 15.6785 23.235 15.5335 23.1623L5.0791 17.9351C4.83109 17.8111 4.64252 17.5935 4.55488 17.3304C4.51149 17.2002 4.49418 17.0626 4.50394 16.9256C4.51371 16.7887 4.55035 16.655 4.61179 16.5322C4.67323 16.4094 4.75825 16.2999 4.86201 16.2099C4.96576 16.12 5.08622 16.0513 5.21649 16.0079C5.4796 15.9203 5.76675 15.9408 6.01477 16.0649L15.9997 21.0579L25.9868 16.0649ZM25.9868 21.292C26.2348 21.168 26.5219 21.1475 26.785 21.2351C27.0482 21.3228 27.2657 21.5113 27.3897 21.7593C27.5138 22.0074 27.5343 22.2945 27.4467 22.5576C27.359 22.8207 27.1704 23.0382 26.9224 23.1623L16.4681 28.3895C16.323 28.4622 16.163 28.5 16.0008 28.5C15.8385 28.5 15.6785 28.4622 15.5335 28.3895L5.0791 23.1623C4.83109 23.0382 4.64252 22.8207 4.55488 22.5576C4.51149 22.4273 4.49418 22.2898 4.50394 22.1528C4.51371 22.0159 4.55035 21.8821 4.61179 21.7593C4.67323 21.6365 4.75825 21.527 4.86201 21.4371C4.96576 21.3471 5.08622 21.2785 5.21649 21.2351C5.4796 21.1475 5.76675 21.168 6.01477 21.292L15.9997 26.285L25.9868 21.292Z" fill="black"/>
</svg>
