<svg width="32" height="32" viewBox="0 0 32 32" fill="none" xmlns="http://www.w3.org/2000/svg">
<path d="M15.0428 10.9626C15.0427 10.6312 14.9416 10.3079 14.7535 10.0375C14.5654 9.76701 14.2995 9.56267 13.9926 9.45263L6.62463 7.166C6.39046 7.09687 6.1436 7.08491 5.90405 7.13109C5.6645 7.17727 5.439 7.2803 5.24584 7.43181C4.8528 7.73926 4.62012 8.22124 4.62012 8.73205V23.0586C4.62012 23.7855 5.08548 24.4245 5.75994 24.623L12.9565 26.8088C13.1935 26.8923 13.4466 26.9169 13.6948 26.8804C13.943 26.844 14.1791 26.7476 14.3832 26.5994C14.5874 26.4511 14.7538 26.2553 14.8686 26.0282C14.9833 25.8011 15.043 25.5493 15.0428 25.294V10.9626ZM17.1975 25.294C17.1972 25.5493 17.2569 25.8011 17.3717 26.0282C17.4864 26.2553 17.6528 26.4511 17.857 26.5994C18.0612 26.7476 18.2972 26.844 18.5454 26.8804C18.7936 26.9169 19.0467 26.8923 19.2837 26.8088L26.4803 24.623C27.1548 24.4245 27.6201 23.7855 27.6201 23.0586V8.73205C27.6201 8.21964 27.389 7.73926 26.9944 7.43181C26.8012 7.2803 26.5757 7.17727 26.3362 7.13109C26.0966 7.08491 25.8498 7.09687 25.6156 7.166L18.2477 9.45263C17.9407 9.56267 17.6748 9.76701 17.4867 10.0375C17.2986 10.3079 17.1975 10.6312 17.1975 10.9626V25.294Z" fill="black"/>
</svg>
