<svg width="33" height="32" viewBox="0 0 33 32" fill="none" xmlns="http://www.w3.org/2000/svg">
<path d="M9.5 8.5C7.84315 8.5 6.5 9.84315 6.5 11.5V25.5C6.5 27.1569 7.84315 28.5 9.5 28.5H23.5C25.1569 28.5 26.5 27.1569 26.5 25.5V11.5C26.5 9.84315 25.1569 8.5 23.5 8.5H9.5ZM19.8804 15.0256C20.7814 15.9122 21.2943 17.1202 21.3067 18.3846C21.3036 19.2036 21.0874 20.0077 20.6795 20.7177C20.3195 21.3441 19.8213 21.8782 19.2242 22.2801C19.1222 22.3487 18.9903 22.2685 18.998 22.1458L19.0425 21.4334C19.0452 21.3907 19.0656 21.3512 19.0982 21.3236C19.5167 20.9697 19.8554 20.5305 20.0913 20.0351C20.3368 19.5195 20.465 18.9558 20.4667 18.3846C20.4561 17.3419 20.0325 16.346 19.2888 15.6156C18.545 14.8852 17.5421 14.4799 16.5 14.4888C15.4579 14.4799 14.455 14.8852 13.7112 15.6156C12.9675 16.346 12.5439 17.3419 12.5333 18.3846C12.5352 18.9495 12.6603 19.5072 12.8998 20.0188C13.1303 20.5113 13.4616 20.9496 13.872 21.3055C13.9025 21.332 13.9221 21.3691 13.9258 21.4094L13.9927 22.1366C14.0041 22.2609 13.8709 22.3447 13.7673 22.2749C13.1732 21.8744 12.6772 21.3424 12.3188 20.7187C11.9107 20.0084 11.6951 19.2039 11.6933 18.3846C11.7057 17.1202 12.2186 15.9122 13.1196 15.0256C14.0207 14.139 15.2363 13.6461 16.5 13.655C17.7637 13.6461 18.9793 14.139 19.8804 15.0256ZM19.1604 12.0058C20.0055 12.3475 20.775 12.8524 21.425 13.4917C22.075 14.131 22.5928 14.8921 22.9488 15.7316C23.3049 16.5712 23.4922 17.4726 23.5 18.3846C23.4991 19.793 23.0666 21.1672 22.2607 22.3219C21.4548 23.4766 20.3144 24.3562 18.9933 24.842C18.9144 24.8704 18.8321 24.8089 18.8371 24.7252L18.8743 24.0915C18.8778 24.0325 18.915 23.9808 18.9695 23.9577C20.0426 23.5018 20.9618 22.745 21.6156 21.7775C22.2875 20.7833 22.6488 19.6115 22.6533 18.4113C22.6498 17.6071 22.4878 16.8116 22.1764 16.0703C21.865 15.3289 21.4105 14.6564 20.8388 14.0912C20.2672 13.526 19.5896 13.0792 18.8451 12.7766C18.1005 12.4739 17.3036 12.3213 16.5 12.3275C14.8815 12.315 13.3243 12.946 12.1706 14.0818C11.0168 15.2175 10.3608 16.7651 10.3467 18.3846C10.3519 19.5934 10.7185 20.773 11.3993 21.7716C12.0624 22.7443 12.9941 23.502 14.0797 23.9528C14.1329 23.9749 14.1701 24.0242 14.1755 24.0816L14.2352 24.7113C14.2429 24.7925 14.1567 24.8494 14.0851 24.8103C12.7655 24.3608 11.6947 23.5532 10.8616 22.4349C10.0284 21.3166 9.5537 19.9719 9.5 18.5781V18.3846C9.50785 17.4726 9.69513 16.5712 10.0512 15.7316C10.4072 14.8921 10.925 14.131 11.575 13.4917C12.225 12.8524 12.9945 12.3475 13.8396 12.0058C14.6846 11.6641 15.5886 11.4923 16.5 11.5003C17.4114 11.4923 18.3154 11.6641 19.1604 12.0058ZM17.4207 16.5129C17.693 16.6965 17.9047 16.9568 18.0291 17.2608C18.1536 17.5648 18.1851 17.8989 18.1197 18.2209C18.0544 18.5428 17.8951 18.8382 17.662 19.0695C17.4289 19.3009 17.1325 19.4579 16.8103 19.5207C16.488 19.5835 16.1544 19.5493 15.8515 19.4223C15.5487 19.2954 15.2903 19.0815 15.109 18.8076C14.9277 18.5337 14.8316 18.2121 14.833 17.8836C14.8365 17.4436 15.0136 17.0229 15.3258 16.713C15.638 16.4031 16.0599 16.2292 16.4996 16.2292C16.8279 16.2306 17.1485 16.3293 17.4207 16.5129ZM17.3831 20.3196C17.5562 20.3964 17.711 20.5093 17.8372 20.6507C17.9633 20.792 18.0579 20.9587 18.1147 21.1395C18.1714 21.3203 18.189 21.5112 18.1663 21.6994L17.7396 24.8487C17.7085 25.1128 17.5851 25.3575 17.3911 25.5394C17.1971 25.7213 16.9451 25.8287 16.6796 25.8426H16.3196C16.0472 25.8381 15.7856 25.7349 15.5833 25.5521C15.381 25.3693 15.2518 25.1194 15.2196 24.8487L14.793 21.6994C14.7702 21.5112 14.7878 21.3203 14.8446 21.1395C14.9013 20.9587 14.9959 20.792 15.1221 20.6507C15.2482 20.5093 15.403 20.3964 15.5762 20.3196C15.7494 20.2427 15.9369 20.2037 16.1263 20.2051H16.833C17.0224 20.2037 17.2099 20.2427 17.3831 20.3196Z" fill="black"/>
<path d="M9.5 7C9.5 5.89543 10.3954 5 11.5 5H21.5C22.6046 5 23.5 5.89543 23.5 7H9.5Z" fill="black"/>
<path d="M11.5 3.5C11.5 2.67157 12.1716 2 13 2H20C20.8284 2 21.5 2.67157 21.5 3.5H11.5Z" fill="black"/>
</svg>
