<svg width="32" height="32" viewBox="0 0 32 32" fill="none" xmlns="http://www.w3.org/2000/svg">
<path d="M16 4C15.4905 4 15.0769 4.41354 15.0769 4.92308V5.08173C15.0769 5.52296 14.7662 5.91662 14.3305 5.98678C14.1191 6.02093 13.9099 6.0605 13.7031 6.10757C13.2748 6.20542 12.8417 5.96292 12.6737 5.55769L12.6124 5.41346C12.4176 4.94269 11.8779 4.71837 11.4063 4.91406C10.9355 5.10883 10.7112 5.6485 10.9069 6.12019L10.9681 6.26803C11.138 6.67418 11.0022 7.155 10.6274 7.38762C10.4465 7.50024 10.27 7.61822 10.0974 7.74099C9.7392 7.99668 9.24377 7.93848 8.93269 7.6274L8.82091 7.51563C8.45999 7.1547 7.87562 7.1547 7.51563 7.51563C7.15563 7.87655 7.15563 8.46091 7.51563 8.82091L7.6274 8.93269C7.93848 9.24377 7.99668 9.73828 7.74099 10.0974C7.61822 10.27 7.50024 10.4465 7.38762 10.6274C7.155 11.0022 6.6733 11.1389 6.26623 10.97L6.12019 10.9087C5.64942 10.7139 5.10795 10.9373 4.91226 11.4081C4.71749 11.8788 4.94089 12.4185 5.41166 12.6142L5.55589 12.6737C5.96112 12.8417 6.20542 13.2748 6.10757 13.7031C6.0605 13.9099 6.01913 14.1191 5.98498 14.3305C5.91575 14.7653 5.52296 15.0769 5.08173 15.0769H4.92308C4.41354 15.0769 4 15.4905 4 16C4 16.5095 4.41354 16.9231 4.92308 16.9231H5.08173C5.52296 16.9231 5.91662 17.2338 5.98678 17.6695C6.02093 17.8809 6.0605 18.0901 6.10757 18.2969C6.20542 18.7252 5.96292 19.1583 5.55769 19.3263L5.41346 19.3876C4.94269 19.5824 4.71837 20.1221 4.91406 20.5938C5.10883 21.0645 5.6485 21.2888 6.12019 21.0931L6.26803 21.0319C6.67511 20.8629 7.15588 20.9988 7.38942 21.3726C7.50204 21.5535 7.6191 21.7309 7.74279 21.9044C7.99848 22.2626 7.94028 22.758 7.62921 23.0691L7.51563 23.1809C7.1547 23.5418 7.1547 24.1262 7.51563 24.4862C7.87655 24.8462 8.46091 24.8471 8.82091 24.4862L8.9345 24.3744C9.24557 24.0633 9.7392 24.0033 10.0974 24.259C10.2709 24.3827 10.4483 24.5016 10.6292 24.6142C11.0031 24.8468 11.1407 25.3285 10.9718 25.7356L10.9105 25.8816C10.7157 26.3524 10.9391 26.8939 11.4099 27.0895C11.8806 27.2843 12.4203 27.0609 12.616 26.5901L12.6755 26.4459C12.8435 26.0407 13.2766 25.7964 13.7049 25.8942C13.9117 25.9413 14.1209 25.9827 14.3323 26.0168C14.7653 26.0842 15.0769 26.477 15.0769 26.9183V27.0769C15.0769 27.5865 15.4905 28 16 28C16.5095 28 16.9231 27.5865 16.9231 27.0769V26.9183C16.9231 26.477 17.2338 26.0834 17.6695 26.0132C17.8809 25.9791 18.0901 25.9395 18.2969 25.8924C18.7252 25.7946 19.1583 26.0371 19.3263 26.4423L19.3876 26.5865C19.5824 27.0573 20.1221 27.2816 20.5938 27.0859C21.0645 26.8912 21.2888 26.3515 21.0931 25.8798L21.0319 25.732C20.8629 25.3249 20.9988 24.8441 21.3726 24.6106C21.5535 24.498 21.7309 24.3809 21.9044 24.2572C22.2626 24.0015 22.758 24.0597 23.0691 24.3708L23.1809 24.4844C23.5418 24.8453 24.1262 24.8453 24.4862 24.4844C24.8462 24.1235 24.8471 23.5391 24.4862 23.1791L24.3744 23.0655C24.0633 22.7544 24.0033 22.2608 24.259 21.9026C24.3827 21.7291 24.5016 21.5517 24.6142 21.3708C24.8468 20.9969 25.3285 20.8593 25.7356 21.0282L25.8816 21.0895C26.3524 21.2843 26.8939 21.0609 27.0895 20.5901C27.2843 20.1194 27.0609 19.5797 26.5901 19.384L26.4459 19.3245C26.0407 19.1565 25.7964 18.7234 25.8942 18.2951C25.9413 18.0883 25.9827 17.8791 26.0168 17.6677C26.0842 17.2347 26.477 16.9231 26.9183 16.9231H27.0769C27.5865 16.9231 28 16.5095 28 16C28 15.4905 27.5865 15.0769 27.0769 15.0769H26.9183C26.477 15.0769 26.0834 14.7662 26.0132 14.3305C25.9791 14.1191 25.9395 13.9099 25.8924 13.7031C25.7946 13.2748 26.0371 12.8417 26.4423 12.6737L26.5865 12.6124C27.0573 12.4176 27.2816 11.8779 27.0859 11.4063C26.8912 10.9355 26.3515 10.7112 25.8798 10.9069L25.732 10.9681C25.3249 11.1371 24.8441 11.0013 24.6106 10.6274C24.498 10.4465 24.3809 10.2691 24.2572 10.0956C24.0015 9.7374 24.0597 9.24197 24.3708 8.93089L24.4844 8.81911C24.8453 8.45819 24.8453 7.87382 24.4844 7.51382C24.1235 7.1529 23.5391 7.1529 23.1791 7.51382L23.0673 7.6274C22.7562 7.93848 22.2608 7.99848 21.9026 7.74279C21.7291 7.6191 21.5517 7.50024 21.3708 7.38762C20.9969 7.155 20.8611 6.6733 21.03 6.26623L21.0913 6.12019C21.2861 5.64942 21.0627 5.10795 20.5919 4.91226C20.1212 4.71749 19.5815 4.94089 19.3858 5.41166L19.3245 5.55589C19.1565 5.96112 18.7234 6.20542 18.2951 6.10757C18.0883 6.0605 17.8791 6.01913 17.6677 5.98498C17.2338 5.91575 16.9231 5.52296 16.9231 5.08173V4.92308C16.9231 4.41354 16.5095 4 16 4ZM16 8.61538C19.7649 8.61538 22.8664 11.4353 23.3215 15.0769H17.5956C17.4338 14.7968 17.2013 14.564 16.9212 14.402C16.6412 14.24 16.3235 14.1544 16 14.1538C15.9994 14.1538 15.9988 14.1538 15.9982 14.1538L13.1352 9.19231C14.0163 8.82098 14.9839 8.61538 16 8.61538ZM11.5415 10.1226L14.4026 15.0769C14.2401 15.3574 14.1543 15.6758 14.1538 16C14.1549 16.323 14.2407 16.64 14.4026 16.9195L11.5397 21.8756C9.76593 20.5268 8.61538 18.4001 8.61538 16C8.61538 13.599 9.76659 11.4713 11.5415 10.1226ZM17.5974 16.9231H23.3215C22.8664 20.5647 19.7649 23.3846 16 23.3846C14.9839 23.3846 14.0163 23.179 13.1352 22.8077L15.9982 17.8462C15.9988 17.8462 15.9994 17.8462 16 17.8462C16.3238 17.8459 16.6419 17.7605 16.9222 17.5985C17.2026 17.4364 17.4354 17.2035 17.5974 16.9231Z" fill="black"/>
</svg>
