<svg width="32" height="32" viewBox="0 0 32 32" fill="none" xmlns="http://www.w3.org/2000/svg">
<path d="M5.25 7.69318C5.25 6.34385 6.34385 5.25 7.69318 5.25H12.5795C13.9289 5.25 15.0227 6.34385 15.0227 7.69318V12.5795C15.0227 13.9289 13.9289 15.0227 12.5795 15.0227H7.69318C6.34385 15.0227 5.25 13.9289 5.25 12.5795V7.69318Z" fill="black"/>
<path d="M5.25 19.4205C5.25 18.0711 6.34385 16.9773 7.69318 16.9773H12.5795C13.9289 16.9773 15.0227 18.0711 15.0227 19.4205V24.3068C15.0227 25.6561 13.9289 26.75 12.5795 26.75H7.69318C6.34385 26.75 5.25 25.6561 5.25 24.3068V19.4205Z" fill="black"/>
<path d="M16.9773 7.69318C16.9773 6.34385 18.0711 5.25 19.4205 5.25H24.3068C25.6561 5.25 26.75 6.34385 26.75 7.69318V12.5795C26.75 13.9289 25.6561 15.0227 24.3068 15.0227H19.4205C18.0711 15.0227 16.9773 13.9289 16.9773 12.5795V7.69318Z" fill="black"/>
<path d="M16.9773 19.4205C16.9773 18.0711 18.0711 16.9773 19.4205 16.9773H24.3068C25.6561 16.9773 26.75 18.0711 26.75 19.4205V24.3068C26.75 25.6561 25.6561 26.75 24.3068 26.75H19.4205C18.0711 26.75 16.9773 25.6561 16.9773 24.3068V19.4205Z" fill="black"/>
</svg>
