<svg width="32" height="32" viewBox="0 0 32 32" fill="none" xmlns="http://www.w3.org/2000/svg">
<path d="M2 1.5C2 0.671573 2.67157 0 3.5 0H18L30 10.5V30.5C30 31.3284 29.3284 32 28.5 32H3.5C2.67157 32 2 31.3284 2 30.5V1.5Z" fill="#FFC757"/>
<path d="M8.42349 7.97393H10.5504C10.7842 7.97393 10.9739 7.7842 10.9739 7.55045V5.42349C10.9739 5.18944 10.7842 5 10.5504 5H8.42349C8.18974 5 8 5.18974 8 5.42349V7.55045C8 7.7842 8.18974 7.97393 8.42349 7.97393ZM13.5244 7.97393H11.3974C11.1637 7.97393 10.9739 8.16367 10.9739 8.39742V10.5244C10.9739 10.7584 11.1637 10.9479 11.3974 10.9479H13.5244C13.7581 10.9479 13.9479 10.7581 13.9479 10.5244V8.39742C13.9479 8.16367 13.7581 7.97393 13.5244 7.97393ZM8.42349 13.9218H10.5504C10.7842 13.9218 10.9739 13.7321 10.9739 13.4983V11.3714C10.9739 11.1373 10.7842 10.9479 10.5504 10.9479H8.42349C8.18974 10.9479 8 11.1376 8 11.3714V13.4983C8 13.7321 8.18974 13.9218 8.42349 13.9218ZM13.5244 13.9218H11.3974C11.1637 13.9218 10.9739 14.1115 10.9739 14.3453V16.4722C10.9739 16.7063 11.1637 16.8957 11.3974 16.8957H13.5244C13.7581 16.8957 13.9479 16.706 13.9479 16.4722V14.3453C13.9479 14.1115 13.7581 13.9218 13.5244 13.9218ZM12.9082 18.5376H8.91924C8.41159 18.5376 8 18.9492 8 19.4569V24.0808C8 24.5884 8.41159 25 8.91924 25H12.9082C13.4158 25 13.8274 24.5884 13.8274 24.0808V19.4569C13.8274 18.9492 13.4158 18.5376 12.9082 18.5376ZM12.7616 23.4324C12.7616 23.8405 12.4309 24.1712 12.0228 24.1712H9.80429C9.39626 24.1712 9.06556 23.8405 9.06556 23.4324V22.6188C9.06556 22.2107 9.39626 21.88 9.80429 21.88H12.0228C12.4309 21.88 12.7616 22.2107 12.7616 22.6188V23.4324Z" fill="white"/>
<path d="M18 10.5V0L30 10.5H18Z" fill="#F79F2B"/>
</svg>