<svg width="32" height="32" viewBox="0 0 32 32" fill="none" xmlns="http://www.w3.org/2000/svg">
<path d="M2 1.5C2 0.671573 2.67157 0 3.5 0H18L30 10.5V30.5C30 31.3284 29.3284 32 28.5 32H3.5C2.67157 32 2 31.3284 2 30.5V1.5Z" fill="#FF7878"/>
<path d="M20.9997 13.945C20.9997 13.8237 20.973 13.7039 20.9215 13.5941C20.87 13.4844 20.7949 13.3873 20.7016 13.3098C20.6082 13.2324 20.499 13.1765 20.3817 13.1461C20.2643 13.1156 20.1416 13.1114 20.0225 13.1337L12.2551 14.5899C11.8646 14.663 11.5819 15.0039 11.5819 15.4012L11.5873 22.8283C11.3744 22.7499 11.1493 22.7099 10.9224 22.7101C9.86054 22.7101 9 23.5709 9 24.6325C9 25.6944 9.86083 26.5549 10.9224 26.5549C11.984 26.5549 12.8448 25.6941 12.8448 24.6325V17.6262L19.7425 16.333V21.3721C19.5296 21.2937 19.3045 21.2537 19.0776 21.2539C18.0157 21.2539 17.1552 22.1147 17.1552 23.1763C17.1552 24.2379 18.016 25.0987 19.0776 25.0987C20.1392 25.0987 21 24.2379 21 23.1763C20.9997 23.141 20.9997 13.945 20.9997 13.945Z" fill="white"/>
<path d="M18 10.5V0L30 10.5H18Z" fill="#E45656"/>
</svg>