<svg width="32" height="32" viewBox="0 0 32 32" fill="none" xmlns="http://www.w3.org/2000/svg">
<path d="M2 1.5C2 0.671573 2.67157 0 3.5 0H18L30 10.5V30.5C30 31.3284 29.3284 32 28.5 32H3.5C2.67157 32 2 31.3284 2 30.5V1.5Z" fill="#4A8CD9"/>
<path d="M12.7532 23.7242C12.8315 23.8618 12.8519 24.0249 12.81 24.1776C12.768 24.3302 12.6672 24.46 12.5295 24.5383C12.3919 24.6166 12.2288 24.6371 12.0762 24.5951C11.9235 24.5532 11.7937 24.4523 11.7154 24.3147L9.46002 20.3506C9.40849 20.2603 9.38145 20.1581 9.38159 20.0541C9.38173 19.9501 9.40904 19.8479 9.46081 19.7578L11.717 15.8311C11.7983 15.6989 11.9279 15.6035 12.0784 15.5653C12.2288 15.527 12.3882 15.5489 12.5228 15.6262C12.6574 15.7036 12.7566 15.8303 12.7993 15.9795C12.842 16.1288 12.8249 16.2888 12.7516 16.4256L10.6665 20.057L12.7532 23.7234V23.7242ZM19.01 23.7242L21.0967 20.0578L19.0116 16.4264C18.9383 16.2896 18.9212 16.1296 18.9639 15.9803C19.0066 15.8311 19.1058 15.7044 19.2404 15.627C19.375 15.5497 19.5344 15.5278 19.6848 15.5661C19.8353 15.6043 19.9649 15.6997 20.0462 15.8319L22.3024 19.7585C22.3541 19.8487 22.3815 19.9509 22.3816 20.0549C22.3817 20.1589 22.3547 20.2611 22.3032 20.3514L20.0478 24.3147C19.9695 24.4523 19.8397 24.5532 19.687 24.5951C19.5343 24.6371 19.3713 24.6166 19.2336 24.5383C19.096 24.46 18.9952 24.3302 18.9532 24.1776C18.9113 24.0249 18.9317 23.8618 19.01 23.7242ZM16.6122 15.9768C16.6607 15.826 16.7671 15.7008 16.908 15.6286C17.0489 15.5563 17.2127 15.543 17.3634 15.5916C17.5141 15.6401 17.6394 15.7465 17.7116 15.8874C17.7839 16.0283 17.7972 16.1921 17.7486 16.3428L15.198 24.2669C15.1762 24.3441 15.1391 24.4162 15.0889 24.4787C15.0387 24.5413 14.9763 24.593 14.9057 24.631C14.835 24.6689 14.7574 24.6922 14.6775 24.6994C14.5976 24.7067 14.5171 24.6978 14.4407 24.6732C14.3644 24.6487 14.2937 24.609 14.2331 24.5565C14.1724 24.504 14.1229 24.4399 14.0876 24.3678C14.0523 24.2958 14.0318 24.2174 14.0275 24.1373C14.0231 24.0572 14.035 23.9771 14.0623 23.9017L16.6122 15.9752V15.9768Z" fill="white"/>
<path d="M18 10.5V0L30 10.5H18Z" fill="#2D7EDE"/>
</svg>