<?xml version="1.0" encoding="utf-8"?>
<!-- Generator: Adobe Illustrator 25.3.1, SVG Export Plug-In . SVG Version: 6.00 Build 0)  -->
<svg version="1.1" id="图层_1" xmlns="http://www.w3.org/2000/svg" xmlns:xlink="http://www.w3.org/1999/xlink" x="0px" y="0px"
	 viewBox="0 0 32 32" style="enable-background:new 0 0 32 32;" xml:space="preserve">
<style type="text/css">
	.st0{fill:#4A8CD9;}
	.st1{fill:#FFFFFF;}
	.st2{fill:#2D7EDE;}
</style>
<path class="st0" d="M2,1.5C2,0.7,2.7,0,3.5,0H18l12,10.5v20c0,0.8-0.7,1.5-1.5,1.5h-25C2.7,32,2,31.3,2,30.5V1.5z"/>
<path class="st1" d="M12.8,23.7c0.1,0.1,0.1,0.3,0.1,0.5c0,0.2-0.1,0.3-0.3,0.4c-0.1,0.1-0.3,0.1-0.5,0.1c-0.2,0-0.3-0.1-0.4-0.3
	l-2.3-4c-0.1-0.1-0.1-0.2-0.1-0.3s0-0.2,0.1-0.3l2.3-3.9c0.1-0.1,0.2-0.2,0.4-0.3c0.2,0,0.3,0,0.4,0.1c0.1,0.1,0.2,0.2,0.3,0.4
	c0,0.1,0,0.3,0,0.4l-2.1,3.6L12.8,23.7L12.8,23.7z M19,23.7l2.1-3.7L19,16.4c-0.1-0.1-0.1-0.3,0-0.4c0-0.1,0.1-0.3,0.3-0.4
	c0.1-0.1,0.3-0.1,0.4-0.1c0.2,0,0.3,0.1,0.4,0.3l2.3,3.9c0.1,0.1,0.1,0.2,0.1,0.3c0,0.1,0,0.2-0.1,0.3l-2.3,4
	c-0.1,0.1-0.2,0.2-0.4,0.3c-0.2,0-0.3,0-0.5-0.1c-0.1-0.1-0.2-0.2-0.3-0.4C18.9,24,18.9,23.9,19,23.7z M16.6,16
	c0-0.2,0.2-0.3,0.3-0.3c0.1-0.1,0.3-0.1,0.5,0c0.2,0,0.3,0.2,0.3,0.3c0.1,0.1,0.1,0.3,0,0.5l-2.6,7.9c0,0.1-0.1,0.1-0.1,0.2
	c-0.1,0.1-0.1,0.1-0.2,0.2c-0.1,0-0.1,0.1-0.2,0.1c-0.1,0-0.2,0-0.2,0c-0.1,0-0.1-0.1-0.2-0.1c-0.1-0.1-0.1-0.1-0.1-0.2
	c0-0.1-0.1-0.2-0.1-0.2c0-0.1,0-0.2,0-0.2L16.6,16L16.6,16z"/>
<path class="st2" d="M18,10.5V0l12,10.5H18z"/>
</svg>
