<svg width="32" height="32" viewBox="0 0 32 32" fill="none" xmlns="http://www.w3.org/2000/svg">
<path d="M2 1.5C2 0.671573 2.67157 0 3.5 0H18L30 10.5V30.5C30 31.3284 29.3284 32 28.5 32H3.5C2.67157 32 2 31.3284 2 30.5V1.5Z" fill="#62647B"/>
<path fill-rule="evenodd" clip-rule="evenodd" d="M16.0908 14.6743C15.9472 14.6743 15.8094 14.7313 15.7078 14.8329C15.6062 14.9345 15.5492 15.0723 15.5492 15.2159V15.3102C15.548 15.5901 15.4651 15.8636 15.3105 16.097C15.1559 16.3304 14.9365 16.5135 14.6792 16.6238C14.6334 16.6434 14.5852 16.6566 14.536 16.663C14.3022 16.7449 14.0505 16.7651 13.8055 16.7207C13.5233 16.6695 13.2629 16.535 13.0579 16.3344L13.0536 16.3302L13.0211 16.2977C12.9708 16.2473 12.9109 16.2072 12.8451 16.1799C12.7794 16.1527 12.7089 16.1386 12.6377 16.1386C12.5665 16.1386 12.496 16.1527 12.4303 16.1799C12.3645 16.2072 12.3048 16.2471 12.2545 16.2975C12.2041 16.3478 12.1637 16.408 12.1365 16.4737C12.1092 16.5395 12.0952 16.61 12.0952 16.6812C12.0952 16.7523 12.1092 16.8228 12.1365 16.8886C12.1637 16.9543 12.2037 17.0141 12.254 17.0644L12.291 17.1013C12.4915 17.3063 12.626 17.5668 12.6772 17.849C12.7274 18.1256 12.6952 18.4107 12.5849 18.6689C12.4843 18.9325 12.3083 19.1607 12.0787 19.325C11.8444 19.4925 11.5652 19.5857 11.2772 19.5925L11.2646 19.5928L11.2158 19.5926C11.0722 19.5926 10.9344 19.6497 10.8328 19.7513C10.7312 19.8528 10.6742 19.9906 10.6742 20.1343C10.6742 20.2779 10.7312 20.4157 10.8328 20.5173C10.9344 20.6189 11.0722 20.6759 11.2158 20.6759H11.3101C11.59 20.6771 11.8635 20.76 12.0969 20.9146C12.3295 21.0686 12.5121 21.2871 12.6225 21.5432C12.7374 21.8049 12.7715 22.095 12.7205 22.3762C12.6694 22.6584 12.5348 22.9188 12.3343 23.1239L12.3301 23.1281L12.2976 23.1606C12.2472 23.2109 12.2071 23.2709 12.1798 23.3366C12.1525 23.4024 12.1385 23.4729 12.1385 23.5441C12.1385 23.6153 12.1525 23.6857 12.1798 23.7515C12.2071 23.8173 12.247 23.877 12.2974 23.9273C12.3477 23.9777 12.4078 24.018 12.4736 24.0453C12.5394 24.0726 12.6098 24.0866 12.681 24.0866C12.7522 24.0866 12.8227 24.0726 12.8885 24.0453C12.9542 24.018 13.014 23.9781 13.0643 23.9277L13.1012 23.8908C13.3062 23.6902 13.5667 23.5557 13.8489 23.5045C14.1255 23.4544 14.4106 23.4866 14.6688 23.5969C14.9324 23.6974 15.1606 23.8734 15.3248 24.103C15.4924 24.3373 15.5856 24.6166 15.5923 24.9045L15.5926 24.9172L15.5925 24.9659C15.5925 25.1096 15.6496 25.2474 15.7511 25.349C15.8527 25.4505 15.9905 25.5076 16.1342 25.5076C16.2778 25.5076 16.4156 25.4505 16.5172 25.349C16.6188 25.2474 16.6758 25.1096 16.6758 24.9659V24.8739L16.6758 24.8717C16.6769 24.5918 16.7599 24.3183 16.9145 24.0849C17.0685 23.8523 17.2869 23.6696 17.5431 23.5592C17.8048 23.4444 18.0949 23.4102 18.3761 23.4612C18.6583 23.5124 18.9187 23.6469 19.1238 23.8475L19.128 23.8517L19.1605 23.8842C19.2108 23.9345 19.2708 23.9747 19.3365 24.002C19.4023 24.0292 19.4728 24.0433 19.5439 24.0433C19.6151 24.0433 19.6856 24.0292 19.7514 24.002C19.8171 23.9747 19.8769 23.9348 19.9272 23.8844C19.9775 23.8341 20.0179 23.7739 20.0452 23.7082C20.0724 23.6424 20.0865 23.5719 20.0865 23.5007C20.0865 23.4296 20.0724 23.3591 20.0452 23.2933C20.0179 23.2275 19.978 23.1678 19.9276 23.1175L19.8907 23.0806C19.6901 22.8755 19.5556 22.6151 19.5044 22.3329C19.4534 22.0516 19.4876 21.7616 19.6024 21.4999C19.7128 21.2437 19.8955 21.0253 20.1281 20.8712C20.3615 20.7167 20.635 20.6337 20.9149 20.6326L20.9171 20.6326L20.9658 20.6326C21.1095 20.6326 21.2473 20.5755 21.3488 20.474C21.4504 20.3724 21.5075 20.2346 21.5075 20.0909C21.5075 19.9473 21.4504 19.8095 21.3488 19.7079C21.2473 19.6063 21.1095 19.5493 20.9658 19.5493H20.8737L20.8716 19.5493C20.5916 19.5482 20.3181 19.4652 20.0847 19.3106C19.8513 19.1561 19.6682 18.9366 19.558 18.6793C19.5383 18.6335 19.5252 18.5853 19.5187 18.5361C19.4368 18.3023 19.4167 18.0507 19.4611 17.8057C19.5123 17.5234 19.6468 17.263 19.8474 17.058L19.8515 17.0537L19.8841 17.0213C19.9344 16.971 19.9746 16.911 20.0018 16.8452C20.0291 16.7795 20.0431 16.709 20.0431 16.6378C20.0431 16.5666 20.0291 16.4961 20.0018 16.4304C19.9746 16.3646 19.9346 16.3049 19.8843 16.2546C19.834 16.2042 19.7738 16.1638 19.708 16.1366C19.6423 16.1093 19.5718 16.0953 19.5006 16.0953C19.4294 16.0953 19.3589 16.1093 19.2932 16.1366C19.2274 16.1638 19.1677 16.2038 19.1174 16.2542L19.0804 16.2911C18.8754 16.4917 18.615 16.6262 18.3328 16.6773C18.0515 16.7283 17.7615 16.6942 17.4998 16.5793C17.2436 16.4689 17.0252 16.2863 16.8711 16.0537C16.7166 15.8203 16.6336 15.5468 16.6325 15.2669L16.6325 15.2647V15.2159C16.6325 15.0723 16.5754 14.9345 16.4738 14.8329C16.3723 14.7313 16.2345 14.6743 16.0908 14.6743ZM14.9418 14.0669C15.2465 13.7621 15.6598 13.5909 16.0908 13.5909C16.5218 13.5909 16.9351 13.7621 17.2399 14.0669C17.5446 14.3716 17.7158 14.785 17.7158 15.2159V15.2634C17.7163 15.3317 17.7366 15.3985 17.7743 15.4555C17.8123 15.5128 17.8661 15.5577 17.9292 15.5847L17.9345 15.587C17.9989 15.6154 18.0703 15.6239 18.1395 15.6114C18.208 15.599 18.2712 15.5665 18.3212 15.5182L18.3509 15.4886C18.351 15.4885 18.3509 15.4886 18.3509 15.4886C18.5018 15.3376 18.6812 15.2176 18.8783 15.1358C19.0756 15.0541 19.2871 15.012 19.5006 15.012C19.7142 15.012 19.9256 15.0541 20.1229 15.1358C20.32 15.2175 20.499 15.3372 20.6499 15.4881C20.801 15.639 20.9208 15.8183 21.0026 16.0155C21.0844 16.2128 21.1265 16.4243 21.1265 16.6378C21.1265 16.8514 21.0844 17.0628 21.0026 17.2601C20.9208 17.4574 20.801 17.6366 20.6499 17.7875L20.6202 17.8172C20.5719 17.8672 20.5395 17.9305 20.527 17.9989C20.5145 18.0682 20.523 18.1395 20.5514 18.2039C20.5667 18.2386 20.5783 18.2747 20.586 18.3116C20.6116 18.3494 20.6445 18.382 20.6829 18.4074C20.7399 18.4452 20.8067 18.4655 20.8751 18.4659H20.9658C21.3968 18.4659 21.8101 18.6371 22.1149 18.9419C22.4196 19.2466 22.5908 19.66 22.5908 20.0909C22.5908 20.5219 22.4196 20.9352 22.1149 21.24C21.8101 21.5447 21.3968 21.7159 20.9658 21.7159H20.9184C20.85 21.7164 20.7832 21.7367 20.7262 21.7745C20.669 21.8124 20.6241 21.8662 20.597 21.9293L20.5947 21.9347C20.5663 21.999 20.5578 22.0704 20.5704 22.1396C20.5828 22.2081 20.6152 22.2713 20.6635 22.3214L20.6932 22.351C20.8443 22.502 20.9642 22.6812 21.0459 22.8785C21.1277 23.0757 21.1698 23.2872 21.1698 23.5007C21.1698 23.7143 21.1277 23.9257 21.0459 24.123C20.9642 24.3202 20.8444 24.4993 20.6934 24.6502C20.5425 24.8012 20.3634 24.921 20.1662 25.0027C19.969 25.0845 19.7575 25.1266 19.5439 25.1266C19.3304 25.1266 19.1189 25.0845 18.9217 25.0027C18.7244 24.9209 18.5452 24.8011 18.3943 24.65L18.3646 24.6203C18.3146 24.572 18.2513 24.5396 18.1828 24.5272C18.1136 24.5146 18.0422 24.5231 17.9779 24.5515L17.9725 24.5538C17.9094 24.5809 17.8556 24.6258 17.8177 24.683C17.7799 24.74 17.7596 24.8068 17.7592 24.8752V24.9659C17.7592 25.3969 17.5879 25.8102 17.2832 26.115C16.9785 26.4197 16.5651 26.5909 16.1342 26.5909C15.7032 26.5909 15.2899 26.4197 14.9851 26.115C14.6804 25.8102 14.5092 25.3969 14.5092 24.9659V24.925C14.5066 24.8561 14.4838 24.7894 14.4437 24.7333C14.4026 24.6758 14.3452 24.632 14.2788 24.6076C14.2681 24.6037 14.2576 24.5994 14.2471 24.5948C14.1828 24.5664 14.1114 24.5579 14.0421 24.5705C13.9737 24.5829 13.9104 24.6153 13.8604 24.6636L13.8307 24.6933C13.6798 24.8444 13.5006 24.9643 13.3033 25.0461C13.106 25.1278 12.8946 25.1699 12.681 25.1699C12.4675 25.1699 12.256 25.1278 12.0588 25.0461C11.8615 24.9643 11.6823 24.8444 11.5313 24.6933C11.3805 24.5425 11.2607 24.3634 11.179 24.1663C11.0973 23.9691 11.0552 23.7576 11.0552 23.5441C11.0552 23.3305 11.0973 23.1191 11.179 22.9218C11.2608 22.7246 11.3806 22.5455 11.5316 22.3946C11.5316 22.3945 11.5315 22.3947 11.5316 22.3946L11.5614 22.3647C11.6098 22.3147 11.6422 22.2514 11.6546 22.183C11.6671 22.1137 11.6587 22.0423 11.6303 21.978L11.6279 21.9727C11.6009 21.9096 11.556 21.8557 11.4987 21.8178C11.4417 21.78 11.375 21.7597 11.3066 21.7593H11.2158C10.7848 21.7593 10.3715 21.5881 10.0668 21.2833C9.76203 20.9786 9.59082 20.5653 9.59082 20.1343C9.59082 19.7033 9.76203 19.29 10.0668 18.9852C10.3715 18.6805 10.7848 18.5093 11.2158 18.5093H11.2568C11.3257 18.5067 11.3924 18.484 11.4485 18.4438C11.506 18.4027 11.5497 18.3453 11.5741 18.279C11.5781 18.2683 11.5823 18.2577 11.5869 18.2472C11.6153 18.1829 11.6238 18.1115 11.6113 18.0423C11.5988 17.9738 11.5664 17.9106 11.5181 17.8605L11.4884 17.8308C11.3373 17.6799 11.2175 17.5007 11.1357 17.3034C11.0539 17.1062 11.0118 16.8947 11.0118 16.6812C11.0118 16.4676 11.0539 16.2561 11.1357 16.0589C11.2175 15.8617 11.3372 15.6826 11.4882 15.5317C11.6391 15.3807 11.8182 15.2609 12.0154 15.1792C12.2127 15.0974 12.4241 15.0553 12.6377 15.0553C12.8512 15.0553 13.0627 15.0974 13.26 15.1792C13.4572 15.2609 13.6363 15.3807 13.7872 15.5317C13.7872 15.5317 13.7871 15.5316 13.7872 15.5317L13.8171 15.5616C13.8671 15.6099 13.9303 15.6423 13.9988 15.6547C14.068 15.6673 14.1394 15.6588 14.2038 15.6304C14.2385 15.6151 14.2746 15.6035 14.3115 15.5958C14.3492 15.5701 14.3819 15.5373 14.4073 15.4989C14.4451 15.4418 14.4654 15.3751 14.4658 15.3067V15.2159C14.4658 14.785 14.637 14.3716 14.9418 14.0669ZM16.0908 19.0074C15.4925 19.0074 15.0075 19.4924 15.0075 20.0907C15.0075 20.689 15.4925 21.1741 16.0908 21.1741C16.6891 21.1741 17.1741 20.689 17.1741 20.0907C17.1741 19.4924 16.6891 19.0074 16.0908 19.0074ZM13.9241 20.0907C13.9241 18.8941 14.8942 17.9241 16.0908 17.9241C17.2874 17.9241 18.2575 18.8941 18.2575 20.0907C18.2575 21.2874 17.2874 22.2574 16.0908 22.2574C14.8942 22.2574 13.9241 21.2874 13.9241 20.0907Z" fill="white"/>
<path d="M18 10.5V0L30 10.5H18Z" fill="#4D4F60"/>
</svg>