<svg width="32" height="32" viewBox="0 0 32 32" fill="none" xmlns="http://www.w3.org/2000/svg">
<path d="M2 1.5C2 0.671573 2.67157 0 3.5 0H18L30 10.5V30.5C30 31.3284 29.3284 32 28.5 32H3.5C2.67157 32 2 31.3284 2 30.5V1.5Z" fill="#F98950"/>
<path d="M11 15.4812C11 15.8741 11.5264 16.2508 12.4634 16.5286C13.4005 16.8064 14.6714 16.9624 15.9965 16.9624C17.3217 16.9624 18.5926 16.8064 19.5296 16.5286C20.4666 16.2508 20.993 15.8741 20.993 15.4812C20.993 15.0884 20.4666 14.7116 19.5296 14.4338C18.5926 14.1561 17.3217 14 15.9965 14C14.6714 14 13.4005 14.1561 12.4634 14.4338C11.5264 14.7116 11 15.0884 11 15.4812Z" fill="white"/>
<path d="M15.9965 20.0987C18.7538 20.0987 20.993 19.4346 20.993 18.6175V16.5904C20.993 16.5626 20.9896 16.5313 20.9861 16.5035C20.8366 17.2823 18.6599 17.9013 16 17.9013C13.3401 17.9013 11.1599 17.2789 11.0104 16.5C11.0035 16.5278 11.0035 16.5556 11.0035 16.5869V18.614C11.0035 19.4346 13.2392 20.0987 15.9965 20.0987Z" fill="white"/>
<path d="M15.9965 23.1516C18.7538 23.1516 20.993 22.4875 20.993 21.6704V19.6433C20.993 19.6154 20.9896 19.5841 20.9861 19.5563C20.8366 20.3352 18.6599 20.9541 16 20.9541C13.3401 20.9541 11.1599 20.3352 11.0104 19.5563C11.0035 19.5841 11.0035 19.612 11.0035 19.6433V21.6704C11.0035 22.4875 13.2392 23.1516 15.9965 23.1516Z" fill="white"/>
<path d="M20.9861 22.5953C20.8366 23.3741 18.6599 23.993 16 23.993C13.3401 23.993 11.1634 23.3741 11.0139 22.5953C11.007 22.6231 11.007 22.6509 11.007 22.6822V24.7093C11.007 25.5264 13.2427 26.1905 16.0035 26.1905C18.7608 26.1905 21 25.5264 21 24.7093V22.6822C20.993 22.6544 20.9896 22.6231 20.9861 22.5953Z" fill="white"/>
<path d="M18 10.5V0L30 10.5H18Z" fill="#F26C38"/>
</svg>