<svg width="32" height="32" viewBox="0 0 32 32" fill="none" xmlns="http://www.w3.org/2000/svg">
<path d="M2 1.5C2 0.671573 2.67157 0 3.5 0H18L30 10.5V30.5C30 31.3284 29.3284 32 28.5 32H3.5C2.67157 32 2 31.3284 2 30.5V1.5Z" fill="#83BF8D"/>
<path d="M16.0852 13.8298C17.2206 13.8298 18.1463 14.1268 18.845 14.7556C19.5437 15.367 19.8931 16.2054 19.8931 17.2709C19.8931 18.1442 19.666 18.8604 19.2468 19.4194C19.0896 19.594 18.583 20.0656 17.7446 20.7993C17.4302 21.0613 17.2031 21.3582 17.0459 21.6726C16.8712 22.022 16.7839 22.3888 16.7839 22.808V23.0525H14.7752V22.808C14.7752 22.1442 14.88 21.5678 15.1245 21.0962C15.3516 20.6246 16.0328 19.891 17.1682 18.8779L17.3778 18.6333C17.6922 18.249 17.8494 17.8298 17.8494 17.3932C17.8494 16.8167 17.6747 16.3626 17.3603 16.0307C17.0284 15.6988 16.5568 15.5416 15.9629 15.5416C15.1944 15.5416 14.6529 15.7687 14.321 16.2578C14.0241 16.6595 13.8843 17.2359 13.8843 17.9696H11.8931C11.8931 16.677 12.2599 15.6639 13.0284 14.9303C13.7795 14.1966 14.7926 13.8298 16.0852 13.8298ZM15.7708 23.9084C16.1551 23.9084 16.487 24.0307 16.749 24.2752C16.9935 24.5198 17.1332 24.8342 17.1332 25.2185C17.1332 25.6028 16.9935 25.9346 16.7315 26.1792C16.4695 26.4237 16.1551 26.546 15.7708 26.546C15.3865 26.546 15.0721 26.4063 14.8101 26.1617C14.5481 25.9172 14.4258 25.6028 14.4258 25.2185C14.4258 24.8342 14.5481 24.5198 14.8101 24.2752C15.0721 24.0307 15.3865 23.9084 15.7708 23.9084Z" fill="white"/>
<path d="M18 10.5V0L30 10.5H18Z" fill="#659D6E"/>
</svg>