<svg width="32" height="32" viewBox="0 0 32 32" fill="none" xmlns="http://www.w3.org/2000/svg">
<path d="M30 21V3C30 1.34312 28.6562 0 27 0H8C4.68625 0 2 2.68625 2 6V26C2 29.3138 4.68625 32 8 32H28C29.1044 32 30 31.1044 30 30.0562C30 29.3237 29.5871 28.7112 29 28.3625V23.2775C29.6125 22.675 30 21.8875 30 21ZM10.9438 8H22.9438C23.55 8 24 8.45 24 9C24 9.55 23.55 10 23 10H10.9438C10.45 10 10 9.55 10 9C10 8.45 10.45 8 10.9438 8ZM10.9438 12H22.9438C23.55 12 24 12.45 24 13C24 13.55 23.55 14 23 14H10.9438C10.45 14 10 13.55 10 13C10 12.45 10.45 12 10.9438 12ZM26 28H8C6.89562 28 6 27.1044 6 26C6 24.8956 6.89562 24 8 24H26V28Z" fill="#FFB445"/>
</svg>