<svg width="51" height="50" viewBox="0 0 51 50" fill="none" xmlns="http://www.w3.org/2000/svg">
<g clip-path="url(#clip0_42_5492)">
<path d="M0.594727 10.1562C0.594727 4.54711 5.14184 0 10.751 0H40.4385C46.0477 0 50.5947 4.54711 50.5947 10.1562V39.8438C50.5947 45.453 46.0477 50 40.4385 50H10.751C5.14184 50 0.594727 45.453 0.594727 39.8438V10.1562Z" fill="#FFCA28"/>
<path fill-rule="evenodd" clip-rule="evenodd" d="M12.7041 12.3047C10.7625 12.3047 9.18848 13.8787 9.18848 15.8203V34.1797C9.18848 36.1213 10.7625 37.6953 12.7041 37.6953H38.4854C40.4269 37.6953 42.001 36.1213 42.001 34.1797V18.7891C42.001 16.8322 40.4032 15.252 38.4464 15.2737L24.5205 15.4297L21.2027 12.7755C20.8218 12.4707 20.3485 12.3047 19.8607 12.3047H12.7041ZM25.5947 32.487C28.615 32.487 31.0635 30.0386 31.0635 27.0183C31.0635 23.998 28.615 21.5495 25.5947 21.5495C22.5744 21.5495 20.126 23.998 20.126 27.0183C20.126 30.0386 22.5744 32.487 25.5947 32.487Z" fill="white"/>
<path d="M24.9108 24.7483C24.776 24.6584 24.6025 24.65 24.4596 24.7266C24.3168 24.803 24.2275 24.9519 24.2275 25.1139V28.6295C24.2275 28.7917 24.3168 28.9406 24.4596 29.017C24.6025 29.0936 24.776 29.0852 24.9108 28.9953L27.5475 27.2375C27.6697 27.1559 27.7432 27.0188 27.7432 26.8717C27.7432 26.7248 27.6697 26.5877 27.5475 26.5061L24.9108 24.7483Z" fill="white"/>
</g>
<defs>
<clipPath id="clip0_42_5492">
<rect width="50" height="50" fill="white" transform="translate(0.594727)"/>
</clipPath>
</defs>
</svg>
