<?xml version="1.0" encoding="utf-8"?>
<!-- Generator: Adobe Illustrator 25.3.1, SVG Export Plug-In . SVG Version: 6.00 Build 0)  -->
<svg version="1.1" id="图层_1" xmlns="http://www.w3.org/2000/svg" xmlns:xlink="http://www.w3.org/1999/xlink" x="0px" y="0px"
	 viewBox="0 0 32 32" style="enable-background:new 0 0 32 32;" xml:space="preserve">
<style type="text/css">
	.st0{fill-rule:evenodd;clip-rule:evenodd;fill:#EEA900;}
	.st1{fill:#FFCB3C;}
</style>
<path class="st0" d="M4.5,2C2.6,2,1,3.6,1,5.5v8.4c0,1.9,1.6,3.5,3.5,3.5h15.8c1.9,0,3.5-1.6,3.5-3.5V8.5c0-2-1.6-3-3.5-3h-2.8
	l-4.5-3C12.6,2.2,12.2,2,11.7,2H4.5z"/>
<path class="st1" d="M1,7c0-1.1,0.9-2,2-2h24c2.2,0,4,1.8,4,4v17c0,2.2-1.8,4-4,4H5c-2.2,0-4-1.8-4-4V7z"/>
</svg>
