<svg width="51" height="50" viewBox="0 0 51 50" fill="none" xmlns="http://www.w3.org/2000/svg">
<path d="M38.8477 0H12.3417C5.85403 0 0.594727 5.2593 0.594727 11.747V38.253C0.594727 44.7407 5.85403 50 12.3417 50H38.8477C45.3354 50 50.5947 44.7407 50.5947 38.253V11.747C50.5947 5.2593 45.3354 0 38.8477 0Z" fill="url(#paint0_linear_42_5486)"/>
<path d="M12.321 22.4698C12.321 21.6047 11.6198 20.9035 10.7547 20.9035C9.88972 20.9035 9.18848 21.6047 9.18848 22.4698V27.7107C9.18848 28.5757 9.88972 29.277 10.7547 29.277C11.6198 29.277 12.321 28.5757 12.321 27.7107V22.4698Z" fill="url(#paint1_linear_42_5486)"/>
<path d="M16.7394 18.4335C15.6082 18.4335 14.6912 19.3505 14.6912 20.4817V28.554C14.6912 29.6852 15.6082 30.6022 16.7394 30.6022C17.8706 30.6022 18.7876 29.6852 18.7876 28.554V20.4817C18.7876 19.3505 17.8705 18.4335 16.7394 18.4335Z" fill="url(#paint2_linear_42_5486)"/>
<path d="M21.3574 22.118C21.3574 16.989 21.3574 14.4245 22.777 13.199C23.168 12.8617 23.6191 12.6012 24.1066 12.4314C25.8778 11.8147 28.0986 13.0969 32.5405 15.6615L37.7894 18.6918C42.2313 21.2563 44.452 22.5385 44.8036 24.3808C44.9003 24.888 44.9003 25.4088 44.8036 25.916C44.452 27.7582 42.2313 29.0405 37.7894 31.6051L32.5405 34.6354C28.0986 37.1999 25.8778 38.4821 24.1066 37.8654C23.6191 37.6955 23.168 37.4352 22.777 37.0977C21.3574 35.8722 21.3574 33.3079 21.3574 28.1788V22.118Z" fill="url(#paint3_linear_42_5486)"/>
<defs>
<linearGradient id="paint0_linear_42_5486" x1="25.5947" y1="0" x2="25.5947" y2="49.9999" gradientUnits="userSpaceOnUse">
<stop stop-color="#4E4E4E"/>
<stop offset="1" stop-color="#262525"/>
</linearGradient>
<linearGradient id="paint1_linear_42_5486" x1="0.594726" y1="24.8207" x2="45.0285" y2="7.68711" gradientUnits="userSpaceOnUse">
<stop stop-color="#8148EF"/>
<stop offset="1" stop-color="#4A2CC4"/>
</linearGradient>
<linearGradient id="paint2_linear_42_5486" x1="0.594726" y1="24.8204" x2="45.0289" y2="7.68821" gradientUnits="userSpaceOnUse">
<stop stop-color="#4435E1"/>
<stop offset="1" stop-color="#3E5EFA"/>
</linearGradient>
<linearGradient id="paint3_linear_42_5486" x1="40.4138" y1="24.4575" x2="21.5585" y2="20.1202" gradientUnits="userSpaceOnUse">
<stop stop-color="#00DDFE"/>
<stop offset="1" stop-color="#0092FA"/>
</linearGradient>
</defs>
</svg>
