<svg width="32" height="32" viewBox="0 0 32 32" fill="none" xmlns="http://www.w3.org/2000/svg">
<path d="M2 1.5C2 0.671573 2.67157 0 3.5 0H18L30 10.5V30.5C30 31.3284 29.3284 32 28.5 32H3.5C2.67157 32 2 31.3284 2 30.5V1.5Z" fill="#CA4B52"/>
<path d="M18 10.5V0L30 10.5H18Z" fill="#B0242C"/>
<path d="M11.1198 22.8029C8.03667 19.1238 8.52882 13.7346 8.52882 13.7346C9.66372 13.5534 10.8127 13.4754 11.9617 13.5013C13.0549 13.5777 14.1365 13.7731 15.1874 14.0843C14.3454 14.4228 13.5917 14.9488 12.9834 15.6222C12.3751 16.2957 11.9283 17.0988 11.6769 17.9708L11.6381 18.0097C11.22 19.6105 11.0798 21.2711 11.2235 22.9193L11.1198 22.8029ZM11.638 23.1396C11.638 23.1396 11.1198 18.178 13.7107 15.6258C16.3016 13.0738 21.2374 13.7345 21.2374 13.7345C21.2374 13.7345 22.0533 18.2945 19.1776 21.0797C16.3016 23.8651 11.6639 23.1397 11.6639 23.1397H11.638V23.1396ZM21.2374 26.4559C21.2374 26.4559 15.7315 26.7798 12.0914 23.6968C13.8929 23.7555 15.6895 23.4787 17.3898 22.8806C18.9489 22.2997 20.2154 21.1263 20.9135 19.616C21.182 20.6145 21.3726 21.6324 21.4835 22.6604C21.5384 23.9307 21.4559 25.2033 21.2374 26.4559Z" fill="white"/>
</svg>