<svg width="51" height="50" viewBox="0 0 51 50" fill="none" xmlns="http://www.w3.org/2000/svg">
<g clip-path="url(#clip0_42_5495)">
<path d="M0.594727 10.1562C0.594727 4.54711 5.14184 0 10.751 0H40.4385C46.0477 0 50.5947 4.54711 50.5947 10.1562V39.8438C50.5947 45.453 46.0477 50 40.4385 50H10.751C5.14184 50 0.594727 45.453 0.594727 39.8438V10.1562Z" fill="white"/>
<path fill-rule="evenodd" clip-rule="evenodd" d="M36.8826 30.1931L21.9669 41.1825C20.5889 42.1977 18.6551 41.9439 17.5859 40.6073C16.4498 39.1872 16.7297 37.106 18.2007 36.0366L33.0669 25.2288L20 16V30C20 31.6569 18.6569 33 17 33C15.3431 33 14 31.6569 14 30V16.3176C14.0027 15.4846 14.1733 14.6602 14.5021 13.8917C14.831 13.1232 15.3115 12.4256 15.9164 11.8389C16.5212 11.2521 17.2385 10.7878 18.027 10.4723C18.8156 10.1568 19.6601 9.99646 20.5121 10.0004C21.8982 9.98529 23.2517 10.4113 24.3685 11.2141L36.9335 20.1949C37.7339 20.7744 38.3833 21.5302 38.8293 22.4009C39.2752 23.2716 39.505 24.2328 39.5 25.2066C39.495 26.1804 39.2555 27.1393 38.8007 28.0056C38.346 28.872 37.6889 29.6214 36.8826 30.1931Z" fill="url(#paint0_linear_42_5495)"/>
<path d="M20 16.0352C19.4116 15.6948 18.7285 15.5 18 15.5C15.791 15.5 14 17.2909 14 19.5V29H20V16.0352Z" fill="url(#paint1_linear_42_5495)"/>
<path d="M20.4365 16.3083L33.0669 25.2288C35.5 23.4999 35.0244 18.8306 32.7231 17.1857L24.3685 11.2141C24.2601 11.1361 24.1494 11.0615 24.0366 10.9907L20.4365 16.3083Z" fill="url(#paint2_linear_42_5495)"/>
</g>
<defs>
<linearGradient id="paint0_linear_42_5495" x1="12.3594" y1="36.3636" x2="12.3594" y2="45.4545" gradientUnits="userSpaceOnUse">
<stop stop-color="#FF6701"/>
<stop offset="1" stop-color="#FE9900"/>
</linearGradient>
<linearGradient id="paint1_linear_42_5495" x1="6.47706" y1="8.64668" x2="6.47706" y2="29.8704" gradientUnits="userSpaceOnUse">
<stop stop-color="#E70300"/>
<stop offset="1" stop-color="#FF6701"/>
</linearGradient>
<linearGradient id="paint2_linear_42_5495" x1="34.5" y1="23.5" x2="22.5" y2="14" gradientUnits="userSpaceOnUse">
<stop stop-color="#E70300"/>
<stop offset="1" stop-color="#FF6701"/>
</linearGradient>
<clipPath id="clip0_42_5495">
<rect width="50" height="50" fill="white" transform="translate(0.594727)"/>
</clipPath>
</defs>
</svg>
