<?xml version="1.0" encoding="utf-8"?>
<!-- Generator: Adobe Illustrator 25.3.1, SVG Export Plug-In . SVG Version: 6.00 Build 0)  -->
<svg version="1.1" id="图层_1" xmlns="http://www.w3.org/2000/svg" xmlns:xlink="http://www.w3.org/1999/xlink" x="0px" y="0px"
	 viewBox="0 0 32 32" style="enable-background:new 0 0 32 32;" xml:space="preserve">
<style type="text/css">
	.st0{clip-path:url(#SVGID_2_);}
	.st1{fill:#2777F8;}
	.st2{fill:#FFFFFF;}
</style>
<g>
	<defs>
		<rect id="SVGID_1_" y="0" width="32" height="32"/>
	</defs>
	<clipPath id="SVGID_2_">
		<use xlink:href="#SVGID_1_"  style="overflow:visible;"/>
	</clipPath>
	<g class="st0">
		<path class="st1" d="M32,16c0-8.8-7.2-16-16-16C7.2,0,0,7.2,0,16c0,8.8,7.2,16,16,16C24.8,32,32,24.8,32,16z"/>
		<path class="st2" d="M9.2,14c0-0.1,0.1-0.1,0.1-0.2c1.1-2.2,2.2-4.3,3.3-6.5c0.3-0.5,0.7-0.8,1.3-0.8h5c0.7,0,1.3,0,2,0
			c0.7,0,1.4-0.1,2-0.4c0.1,0,0.1-0.1,0.2,0c0.2,0,0.3,0.2,0.2,0.4c-0.3,0.6-0.6,1.3-1,1.9c-0.3,0.5-0.7,0.7-1.2,0.7h-5.5
			c-0.6,0-1,0.3-1.3,0.8c-0.3,0.5-0.5,1-0.8,1.6c0,0.1-0.1,0.1-0.1,0.2c0.4,0.1,0.7,0.2,1.1,0.2c1.1,0.2,2.2,0.5,3.3,0.9
			c1.5,0.7,2.8,1.7,3.7,3.1c0.5,0.9,0.8,1.8,0.9,2.8c0.2,2.3-0.7,4.3-2.4,5.8c-1.2,1-2.6,1.6-4.1,1.9c-0.9,0.2-1.8,0.2-2.7,0.2
			c-1-0.1-2-0.4-3-0.8c0,0,0,0-0.1-0.1c0.2,0,0.3,0,0.5,0c1.4,0.1,2.8,0,4.1-0.5c1.2-0.4,2.2-1,3.1-1.9c0.7-0.8,1.1-1.7,1.2-2.7
			c0.2-1.4-0.3-2.6-1.3-3.6c-0.9-1-2.1-1.7-3.4-2.1c-1-0.3-2-0.6-3.1-0.7C10.4,14.1,9.8,14,9.2,14C9.2,14,9.2,14,9.2,14z"/>
	</g>
</g>
</svg>
