<svg width="32" height="32" viewBox="0 0 32 32" fill="none" xmlns="http://www.w3.org/2000/svg">
<g clip-path="url(#clip0_80_1156)">
<path d="M32 16C32 7.16344 24.8366 0 16 0C7.16344 0 0 7.16344 0 16C0 24.8366 7.16344 32 16 32C24.8366 32 32 24.8366 32 16Z" fill="#2777F8"/>
<path d="M9.1748 13.9929C9.21262 13.9299 9.23782 13.8543 9.26304 13.8038C10.3471 11.6357 11.4438 9.48012 12.5153 7.29939C12.78 6.75735 13.2086 6.51783 13.7758 6.51783H18.7802C19.4357 6.51783 20.1164 6.50523 20.7718 6.51783C21.4652 6.53043 22.1458 6.39179 22.8014 6.16487C22.8518 6.15227 22.9274 6.11445 22.9652 6.12705C23.1292 6.13967 23.2174 6.31615 23.1544 6.48001C22.8392 7.12291 22.5114 7.76579 22.1586 8.40867C21.9064 8.86247 21.503 9.10197 20.9988 9.10197H15.4524C14.8473 9.10197 14.4061 9.36669 14.154 9.93394C13.9019 10.4634 13.6246 10.9802 13.3598 11.5096C13.322 11.56 13.3094 11.6105 13.2716 11.6735C13.6372 11.7617 14.0153 11.8248 14.3683 11.8878C15.465 12.1273 16.5869 12.3668 17.6205 12.8332C19.1584 13.5139 20.4316 14.5097 21.2888 15.9594C21.8182 16.8418 22.1334 17.762 22.1964 18.783C22.3854 21.1276 21.5156 23.0438 19.7635 24.569C18.5659 25.6026 17.1667 26.2076 15.6162 26.4976C14.7086 26.6616 13.7884 26.7118 12.8808 26.6488C11.8472 26.5606 10.8513 26.2958 9.91854 25.8168C9.90592 25.8044 9.88073 25.8044 9.83031 25.7666C10.0194 25.779 10.1454 25.8044 10.2841 25.8044C11.7085 25.9304 13.0951 25.7666 14.4313 25.3128C15.591 24.9092 16.6499 24.3168 17.4945 23.3714C18.1878 22.59 18.5785 21.695 18.7046 20.6612C18.8937 19.2368 18.3642 18.0771 17.444 17.0435C16.4986 16.0098 15.3263 15.3543 14.0153 14.9131C12.9943 14.5728 11.9732 14.3333 10.9018 14.182C10.3597 14.0938 9.80508 14.0433 9.26304 13.9929C9.23782 14.0181 9.22522 14.0181 9.1748 13.9929Z" fill="white"/>
</g>
<defs>
<clipPath id="clip0_80_1156">
<rect width="32" height="32" fill="white"/>
</clipPath>
</defs>
</svg>