<svg width="50" height="50" viewBox="0 0 50 50" fill="none" xmlns="http://www.w3.org/2000/svg">
<path fill-rule="evenodd" clip-rule="evenodd" d="M23.6666 1.22354C22.4021 1.32704 20.7246 1.61904 18.9191 2.04954C18.4136 2.17004 17.3876 2.52104 16.3336 2.93454C15.6066 3.22004 13.7391 4.12904 13.3921 4.36654C13.2181 4.48604 13.0451 4.58354 13.0076 4.58354C12.8121 4.58354 10.2751 6.41904 9.50158 7.12004C8.04208 8.44254 6.30358 10.3965 5.60808 11.4955C5.44708 11.75 5.24708 12.0335 5.16458 12.125C5.08158 12.2165 4.90208 12.508 4.76558 12.7725C4.62908 13.0375 4.47658 13.303 4.42658 13.363C4.13358 13.716 3.06858 16.091 2.61608 17.4C1.41858 20.8655 0.980581 25.66 1.57108 28.8335C1.66058 29.3145 1.79608 30.0645 1.87158 30.5C1.98158 31.1345 2.66608 33.3945 2.99508 34.2085C3.22008 34.765 4.07058 36.5365 4.31558 36.9585C4.47558 37.2335 4.70058 37.627 4.81608 37.8335C4.93158 38.0395 5.18208 38.4145 5.37358 38.6665C5.56458 38.9185 5.74308 39.181 5.77008 39.25C6.00058 39.8345 9.21308 43.2785 10.0841 43.875C10.2851 44.0125 10.5431 44.211 10.6576 44.316C10.9211 44.558 12.7746 45.817 12.9751 45.89C13.0576 45.92 13.2791 46.049 13.4676 46.1765C13.9781 46.5225 15.9661 47.452 16.9381 47.8C21.4741 49.4215 25.5616 49.7235 30.2916 48.785C31.0711 48.6305 31.9896 48.4115 32.3336 48.2985C33.6246 47.8735 34.4491 47.5735 34.9051 47.362C35.1636 47.242 35.6376 47.023 35.9586 46.8745C36.2791 46.7265 36.7481 46.4825 37.0001 46.3325C37.2521 46.1825 37.6271 45.9665 37.8336 45.853C38.0396 45.739 38.3961 45.5075 38.6251 45.338C38.8541 45.169 39.0981 45.009 39.1666 44.9825C40.1856 44.5925 44.2366 40.504 45.2086 38.8855C45.3001 38.733 45.5226 38.387 45.7026 38.1165C46.2626 37.2765 46.7276 36.3925 47.5386 34.625C49.0181 31.403 49.7271 26.207 49.2216 22.2915C49.1446 21.696 49.0596 21.0395 49.0326 20.8335C48.8216 19.208 47.5451 15.579 46.6001 13.9175C46.4306 13.619 46.2666 13.3145 46.2366 13.241C46.2061 13.1675 45.9996 12.833 45.7781 12.498C45.5566 12.1635 45.3376 11.83 45.2916 11.758C44.0301 9.76804 41.2021 6.89254 39.1666 5.53104C38.9606 5.39304 38.6231 5.16504 38.4166 5.02504C37.8691 4.65304 36.4921 3.85804 36.2086 3.75004C36.0741 3.69904 35.6251 3.49254 35.2111 3.29104C34.7971 3.08954 34.2336 2.85054 33.9586 2.76004C33.6836 2.66954 33.1211 2.47704 32.7086 2.33254C30.3576 1.50904 26.2816 1.00904 23.6666 1.22354ZM19.2811 15.4315C19.6996 15.6685 20.3416 16.038 20.7086 16.252C21.0751 16.4655 21.5436 16.734 21.7501 16.8475C21.9566 16.9615 22.6686 17.3655 23.3336 17.746C23.9981 18.126 25.3291 18.887 26.2916 19.4375C27.2541 19.988 28.4166 20.6535 28.8751 20.9175C29.3336 21.181 30.5521 21.8745 31.5836 22.458C32.6146 23.042 33.6271 23.6215 33.8336 23.746C34.0396 23.8705 34.7336 24.2665 35.3751 24.6255C36.7246 25.381 36.9166 25.5315 36.9166 25.832C36.9166 26.19 36.9671 26.1585 30.0836 30.079C26.4396 32.1545 23.0836 34.07 22.6251 34.3365C18.4496 36.7635 18.4311 36.772 18.1206 36.461L17.9151 36.2555L17.9586 15.3185L18.1551 15.1595C18.4221 14.943 18.4186 14.942 19.2811 15.4315Z" fill="#3C8CEC"/>
</svg>
