<svg width="32" height="32" viewBox="0 0 32 32" fill="none" xmlns="http://www.w3.org/2000/svg">
<path d="M2 1.5C2 0.671573 2.67157 0 3.5 0H18L30 10.5V30.5C30 31.3284 29.3284 32 28.5 32H3.5C2.67157 32 2 31.3284 2 30.5V1.5Z" fill="#FFC757"/>
<path d="M18 10.5V0L30 10.5H18Z" fill="#F79F2B"/>
<path d="M22.6464 22.6801C22.0038 22.6801 21.4132 22.5308 20.8745 22.2322C20.3422 21.9336 19.9171 21.5183 19.5991 20.986C19.2875 20.4473 19.1318 19.8437 19.1318 19.1752C19.1318 18.5067 19.2875 17.9063 19.5991 17.3741C19.9171 16.8419 20.3422 16.4265 20.8745 16.1279C21.4132 15.8293 22.0038 15.6801 22.6464 15.6801C23.2889 15.6801 23.8763 15.8293 24.4085 16.1279C24.9472 16.4265 25.3691 16.8419 25.6742 17.3741C25.9857 17.9063 26.1415 18.5067 26.1415 19.1752C26.1415 19.8437 25.9857 20.4473 25.6742 20.986C25.3626 21.5183 24.9408 21.9336 24.4085 22.2322C23.8763 22.5308 23.2889 22.6801 22.6464 22.6801ZM22.6464 21.1613C23.1916 21.1613 23.6264 20.9795 23.951 20.6161C24.282 20.2526 24.4475 19.7723 24.4475 19.1752C24.4475 18.5716 24.282 18.0913 23.951 17.7343C23.6264 17.3708 23.1916 17.1891 22.6464 17.1891C22.0947 17.1891 21.6533 17.3676 21.3223 17.7246C20.9978 18.0815 20.8355 18.5651 20.8355 19.1752C20.8355 19.7788 20.9978 20.2623 21.3223 20.6258C21.6533 20.9828 22.0947 21.1613 22.6464 21.1613Z" fill="white"/>
<path d="M18.5391 15.7774V17.1112H15.7547V18.5521H17.8381V19.8469H15.7547V22.6119H14.0899V15.7774H18.5391Z" fill="white"/>
<path d="M12.8831 22.6119H11.2183L8.43386 18.3963V22.6119H6.76904V15.7774H8.43386L11.2183 20.0125V15.7774H12.8831V22.6119Z" fill="white"/>
</svg>