<?xml version="1.0" encoding="utf-8"?>
<!-- Generator: Adobe Illustrator 25.3.1, SVG Export Plug-In . SVG Version: 6.00 Build 0)  -->
<svg version="1.1" id="图层_1" xmlns="http://www.w3.org/2000/svg" xmlns:xlink="http://www.w3.org/1999/xlink" x="0px" y="0px"
	 viewBox="0 0 32 32" style="enable-background:new 0 0 32 32;" xml:space="preserve">
<style type="text/css">
	.st0{fill:#83BF8D;}
	.st1{fill:#FFFFFF;}
	.st2{fill:#659D6E;}
</style>
<path class="st0" d="M2,1.5C2,0.7,2.7,0,3.5,0H18l12,10.5v20c0,0.8-0.7,1.5-1.5,1.5h-25C2.7,32,2,31.3,2,30.5V1.5z"/>
<path class="st1" d="M16.1,14.6c1,0,1.8,0.3,2.4,0.8c0.6,0.5,0.9,1.3,0.9,2.2c0,0.8-0.2,1.4-0.6,1.9c-0.1,0.2-0.6,0.6-1.3,1.2
	c-0.3,0.2-0.5,0.5-0.6,0.8c-0.2,0.3-0.2,0.6-0.2,1v0.2h-1.8v-0.2c0-0.6,0.1-1.1,0.3-1.5c0.2-0.4,0.8-1.1,1.8-1.9l0.2-0.2
	c0.3-0.3,0.4-0.7,0.4-1.1c0-0.5-0.2-0.9-0.4-1.2c-0.3-0.3-0.7-0.4-1.2-0.4c-0.7,0-1.1,0.2-1.4,0.6c-0.3,0.4-0.4,0.9-0.4,1.5h-1.7
	c0-1.1,0.3-2,1-2.7C14,14.9,14.9,14.6,16.1,14.6z M15.8,23.4c0.3,0,0.6,0.1,0.9,0.3c0.2,0.2,0.3,0.5,0.3,0.8c0,0.3-0.1,0.6-0.4,0.8
	c-0.2,0.2-0.5,0.3-0.8,0.3c-0.3,0-0.6-0.1-0.8-0.3c-0.2-0.2-0.3-0.5-0.3-0.8c0-0.3,0.1-0.6,0.3-0.8C15.2,23.6,15.4,23.4,15.8,23.4z"
	/>
<path class="st2" d="M18,10.5V0l12,10.5H18z"/>
</svg>
