<svg width="50" height="51" viewBox="0 0 50 51" fill="none" xmlns="http://www.w3.org/2000/svg">
<path d="M45 19.8654C49 22.1748 49 27.9483 45 30.2577L12 49.3102C7.99999 51.6196 3 48.7329 3 44.1141L3 6.00894C3 1.39014 8 -1.4966 12 0.8128L45 19.8654Z" fill="#FDEC16"/>
<path d="M47.4882 22.6187C48.6555 25.2653 47.826 28.626 45 30.2577L12 49.3102C7.99999 51.6196 3 48.7329 3 44.1141V36.8646L47.4882 22.6187Z" fill="#FF3C28"/>
<path d="M45 30.2577C49 27.9483 49 22.1748 45 19.8654L37.8141 15.7166L3 26.8646V43.4415L36.6146 35.099L45 30.2577Z" fill="#0CA4E5"/>
<path d="M37.8685 15.748L3 27.1715V11.387L20.4264 5.67786L37.8685 15.748Z" fill="#93F12E"/>
</svg>