<svg width="32" height="32" viewBox="0 0 32 32" fill="none" xmlns="http://www.w3.org/2000/svg">
<path d="M2 1.5C2 0.671573 2.67157 0 3.5 0H18L30 10.5V30.5C30 31.3284 29.3284 32 28.5 32H3.5C2.67157 32 2 31.3284 2 30.5V1.5Z" fill="#F76868"/>
<path d="M21.6293 20.1553C21.2304 20.1553 20.8791 20.1553 20.4801 20.2413C20.9272 20.4601 21.3661 20.5456 21.8128 20.5847C22.1241 20.6316 22.4355 20.5847 22.6987 20.4987C22.6909 20.3741 22.5153 20.1553 21.6293 20.1553ZM15.5692 17.7874L15.5211 17.727L15.4734 17.8277C15.0752 18.8622 14.6294 19.897 14.144 20.8829L14.1309 20.9627L14.2316 20.9232C15.2027 20.5674 16.2696 20.2524 17.2407 20.0261L17.3563 20.0011C16.6879 19.3298 16.0628 18.5471 15.5692 17.7874ZM15.2599 11.3444L15.1131 11.2954C15.0625 11.2954 14.974 11.3444 14.9321 11.3921C14.747 12.1415 14.8815 12.9386 15.2097 13.6481C15.4869 12.8991 15.4869 12.102 15.2599 11.3444ZM9.34413 24.6994L9.47822 24.6512C10.0939 24.4263 10.5756 23.9845 10.9227 23.398C10.2597 23.6711 9.73898 24.1211 9.34413 24.6994ZM21.7852 21.9436C20.5838 21.8556 19.4305 21.4065 18.4931 20.6044C16.667 21.0055 14.9366 21.5825 13.1984 22.2961C11.8206 24.7495 10.5312 26.0003 9.41776 26.0003C9.1936 26.0003 8.92913 25.9522 8.75309 25.8239C8.26447 25.5993 8 25.1102 8 24.6212C8 24.2202 8.08802 23.106 12.3174 21.2777C13.2947 19.4976 14.0556 17.6694 14.6721 15.7531C14.1354 14.6866 12.9739 12.0568 13.7751 10.7176C14.0396 10.2285 14.5759 9.96405 15.153 10.0039C15.6017 10.0039 16.0422 10.2285 16.3062 10.5814C16.8829 11.383 16.843 13.0751 16.0821 15.5689C16.7949 16.9081 17.7322 18.1107 18.8374 19.1291C19.7748 18.9526 20.7039 18.8165 21.6408 18.8165C23.7315 18.8646 24.0437 19.8427 23.9955 20.4202C24.012 21.9436 22.5461 21.9436 21.7852 21.9436Z" fill="white"/>
<path d="M18 10.5V0L30 10.5H18Z" fill="#EA4D4D"/>
</svg>