<svg width="51" height="50" viewBox="0 0 51 50" fill="none" xmlns="http://www.w3.org/2000/svg">
<g clip-path="url(#clip0_42_5494)">
<path d="M2.59156 0.251264C3.28051 0.0344455 4.01202 0.107394 4.72327 0.0952358C18.9766 0.0992885 33.2299 0.0932095 47.4831 0.0972622C48.5895 0.0303929 49.6939 0.642348 50.2005 1.6312C50.6219 2.40324 50.5085 3.31307 50.5247 4.15805C50.5227 18.0709 50.5227 31.9838 50.5247 45.8967C50.5125 46.7842 50.624 47.7508 50.1316 48.541C49.6047 49.4691 48.5348 50.002 47.4791 49.9514C32.8935 49.9595 18.3079 49.9574 3.72428 49.9514C2.66045 50.0061 1.58446 49.4711 1.05559 48.535C0.565214 47.7487 0.676662 46.7862 0.664504 45.9027C0.668557 31.6494 0.662478 17.3982 0.666531 3.14488C0.579398 1.88652 1.39399 0.650454 2.59156 0.251264ZM24.4436 7.07801C21.4122 7.35967 18.5065 8.77203 16.4092 10.9787C14.4011 13.0618 13.1326 15.8419 12.8894 18.7254C12.6503 21.3475 13.242 24.0405 14.5733 26.3161C16.1498 29.0395 18.7597 31.151 21.7628 32.0993C24.699 33.0476 27.9735 32.8855 30.8023 31.6494C33.7243 30.387 36.1356 27.9959 37.4244 25.0841C38.7638 22.0973 38.8915 18.5917 37.7709 15.5157C36.8145 12.8308 34.9259 10.4944 32.5105 8.98277C30.1316 7.4772 27.244 6.80243 24.4436 7.07801ZM12.5531 35.9676C12.5531 38.2634 12.551 40.5593 12.5531 42.8571H14.0444C14.0444 42.0203 14.0444 41.1834 14.0465 40.3485C15.0374 40.306 16.1296 40.5289 17.0252 39.9878C18.3707 39.1327 18.2086 36.7193 16.6523 36.1864C15.3291 35.7771 13.9148 36.0425 12.5531 35.9676ZM18.9077 35.9635V42.8592C19.3555 42.8571 19.8053 42.8551 20.2532 42.8531C20.2552 40.5633 20.2349 38.2736 20.2633 35.9858C19.8114 35.9655 19.3595 35.9716 18.9077 35.9635ZM21.9289 37.9757C21.4386 38.229 21.24 38.766 21.1022 39.2644C21.5439 39.2887 21.9897 39.2766 22.4335 39.2948C22.6017 38.4681 23.6392 38.2229 24.2633 38.7112C24.4011 39.0192 24.5125 39.5258 24.1032 39.6758C23.3352 39.9392 22.474 39.8541 21.7344 40.2107C20.7334 40.6869 20.7618 42.3668 21.7608 42.8328C22.6341 43.232 23.6979 43.0375 24.4376 42.4498C24.4902 43.1651 25.3899 42.7497 25.8621 42.8592C25.5703 41.4995 25.8195 40.1013 25.6878 38.7295C25.6493 38.3161 25.3129 37.9959 24.9441 37.8541C23.9796 37.4853 22.853 37.5035 21.9289 37.9757ZM32.5551 38.2715C31.6554 39.1368 31.548 40.5897 32.0201 41.6981C32.549 42.9139 34.1417 43.3576 35.3129 42.8571C35.9837 42.6201 36.3443 41.9655 36.6503 41.3698C36.2572 41.3658 35.8661 41.3637 35.475 41.3698C35.0941 41.9716 34.2977 42.2148 33.6594 41.8764C33.1954 41.6636 33.1407 41.1104 33.0556 40.6707C34.2896 40.6646 35.5237 40.6707 36.7577 40.6687C36.6827 39.8926 36.5936 39.0659 36.085 38.4377C35.2582 37.3658 33.4973 37.3293 32.5551 38.2715ZM38.8145 38.6342C38.8266 38.3546 38.8388 38.0729 38.8469 37.7933C38.4153 37.7913 37.9816 37.7913 37.55 37.7913V42.8592C37.9978 42.8571 38.4477 42.8531 38.8955 42.8511C38.9604 41.7366 38.7091 40.5674 39.1062 39.4975C39.4102 38.8592 40.1721 38.7862 40.7942 38.8592C40.7922 38.4255 40.7922 37.9919 40.7901 37.5583C39.9837 37.5643 39.2461 37.9514 38.8145 38.6342ZM26.32 37.7893C26.93 39.5461 27.6068 41.2827 28.164 43.0557C28.2106 43.8136 27.3555 43.8825 26.8124 43.7447C26.8104 44.0952 26.8104 44.4478 26.8104 44.7984C27.704 44.9605 28.9279 44.8997 29.2866 43.8885C30.0444 41.8703 30.7253 39.8237 31.4467 37.7933C30.9826 37.7913 30.5186 37.7913 30.0566 37.7913C29.6878 39.0132 29.321 40.2351 28.9421 41.4509C28.5085 40.2513 28.1539 39.0233 27.781 37.8014C27.2947 37.7913 26.8063 37.7913 26.32 37.7893Z" fill="#F8D714"/>
<path d="M22.1761 14.0973C22.4416 14.0628 22.6645 14.2371 22.8853 14.3506C25.6493 16.0507 28.4233 17.7366 31.1933 19.4265C31.4507 19.5968 31.8357 19.7791 31.706 20.1641C31.4993 20.3789 31.2399 20.5329 30.9867 20.6869C28.1944 22.3445 25.4284 24.0507 22.632 25.7021C22.3869 25.921 21.9269 25.8217 21.9654 25.4387C21.9208 21.923 21.9633 18.4053 21.9451 14.8896C21.9694 14.614 21.8884 14.2614 22.1761 14.0973Z" fill="#F8D714"/>
<path d="M14.0444 37.1084C14.7354 37.1246 15.4872 37.003 16.1234 37.3374C16.6949 37.773 16.6239 38.9321 15.8722 39.1449C15.2683 39.2563 14.6523 39.2057 14.0444 39.2077V37.1084Z" fill="#F8D714"/>
<path d="M33.0454 39.8136C33.1285 39.1874 33.5844 38.5086 34.3018 38.6322C34.9644 38.5795 35.2805 39.2665 35.3656 39.8156C34.5915 39.8197 33.8175 39.8197 33.0454 39.8136Z" fill="#F8D714"/>
<path d="M22.3626 41.2361C22.7172 40.4904 23.7303 40.6991 24.3909 40.4276C24.3565 40.9645 24.4862 41.69 23.9127 41.9939C23.3312 42.4195 22.0931 42.1398 22.3626 41.2361Z" fill="#F8D714"/>
<path d="M24.4436 7.07801C27.244 6.80243 30.1316 7.4772 32.5105 8.98277C34.9259 10.4944 36.8145 12.8308 37.7709 15.5157C38.8915 18.5917 38.7638 22.0973 37.4244 25.0841C36.1356 27.9959 33.7243 30.387 30.8023 31.6494C27.9735 32.8855 24.699 33.0476 21.7628 32.0993C18.7597 31.151 16.1498 29.0395 14.5733 26.3161C13.242 24.0405 12.6503 21.3475 12.8894 18.7254C13.1326 15.8419 14.4011 13.0618 16.4092 10.9787C18.5065 8.77203 21.4122 7.35967 24.4436 7.07801ZM22.1761 14.0973C21.8884 14.2614 21.9694 14.614 21.9451 14.8896C21.9633 18.4053 21.9208 21.923 21.9654 25.4387C21.9269 25.8217 22.3869 25.921 22.632 25.7021C25.4284 24.0507 28.1944 22.3445 30.9867 20.6869C31.2399 20.5329 31.4993 20.3789 31.706 20.1641C31.8357 19.7791 31.4507 19.5968 31.1933 19.4265C28.4233 17.7366 25.6493 16.0507 22.8853 14.3506C22.6645 14.2371 22.4416 14.0628 22.1761 14.0973Z" fill="white"/>
<path d="M12.5531 35.9676C13.9148 36.0425 15.3291 35.7771 16.6523 36.1864C18.2086 36.7193 18.3707 39.1327 17.0252 39.9878C16.1296 40.5289 15.0374 40.306 14.0465 40.3485C14.0444 41.1834 14.0444 42.0203 14.0444 42.8571H12.5531C12.551 40.5593 12.5531 38.2634 12.5531 35.9676ZM14.0444 37.1084V39.2077C14.6523 39.2057 15.2683 39.2563 15.8722 39.1449C16.6239 38.9321 16.6949 37.773 16.1234 37.3374C15.4872 37.003 14.7354 37.1246 14.0444 37.1084Z" fill="#222222"/>
<path d="M18.9077 35.9635C19.3595 35.9716 19.8114 35.9655 20.2633 35.9858C20.2349 38.2736 20.2552 40.5633 20.2532 42.8531C19.8053 42.8551 19.3555 42.8571 18.9077 42.8592V35.9635Z" fill="#222222"/>
<path d="M21.9289 37.9757C22.853 37.5035 23.9796 37.4853 24.9441 37.8541C25.3129 37.9959 25.6493 38.3161 25.6878 38.7295C25.8195 40.1013 25.5703 41.4995 25.8621 42.8592C25.3899 42.7497 24.4902 43.1651 24.4376 42.4498C23.6979 43.0375 22.6341 43.232 21.7608 42.8328C20.7618 42.3668 20.7334 40.6869 21.7344 40.2107C22.474 39.8541 23.3352 39.9392 24.1032 39.6758C24.5125 39.5258 24.4011 39.0192 24.2633 38.7112C23.6392 38.2229 22.6017 38.4681 22.4335 39.2948C21.9897 39.2766 21.5439 39.2887 21.1022 39.2644C21.24 38.766 21.4386 38.229 21.9289 37.9757ZM22.3626 41.2361C22.0931 42.1398 23.3312 42.4195 23.9127 41.9939C24.4862 41.69 24.3565 40.9645 24.3909 40.4276C23.7303 40.6991 22.7172 40.4904 22.3626 41.2361Z" fill="#222222"/>
<path d="M32.5551 38.2715C33.4973 37.3293 35.2582 37.3658 36.085 38.4377C36.5936 39.0659 36.6827 39.8926 36.7577 40.6687C35.5237 40.6707 34.2896 40.6646 33.0556 40.6707C33.1407 41.1104 33.1954 41.6636 33.6594 41.8764C34.2977 42.2148 35.0941 41.9716 35.475 41.3698C35.8661 41.3637 36.2572 41.3658 36.6503 41.3698C36.3443 41.9655 35.9837 42.6201 35.3129 42.8571C34.1417 43.3576 32.549 42.9139 32.0201 41.6981C31.548 40.5897 31.6554 39.1368 32.5551 38.2715ZM33.0454 39.8136C33.8175 39.8197 34.5915 39.8197 35.3656 39.8156C35.2805 39.2665 34.9644 38.5795 34.3018 38.6322C33.5844 38.5086 33.1285 39.1874 33.0454 39.8136Z" fill="#222222"/>
<path d="M38.8145 38.6342C39.2461 37.9514 39.9837 37.5643 40.7901 37.5583C40.7922 37.9919 40.7922 38.4255 40.7942 38.8592C40.1721 38.7862 39.4102 38.8592 39.1062 39.4975C38.7091 40.5674 38.9604 41.7366 38.8955 42.8511C38.4477 42.8531 37.9978 42.8571 37.55 42.8592V37.7913C37.9816 37.7913 38.4153 37.7913 38.8469 37.7933C38.8388 38.0729 38.8266 38.3546 38.8145 38.6342Z" fill="#222222"/>
<path d="M26.32 37.7893C26.8063 37.7913 27.2947 37.7913 27.781 37.8014C28.1539 39.0233 28.5085 40.2513 28.9421 41.4509C29.321 40.2351 29.6878 39.0132 30.0566 37.7913C30.5186 37.7913 30.9826 37.7913 31.4467 37.7933C30.7253 39.8237 30.0444 41.8703 29.2866 43.8885C28.9279 44.8997 27.704 44.9605 26.8104 44.7984C26.8104 44.4478 26.8104 44.0952 26.8124 43.7447C27.3555 43.8825 28.2106 43.8136 28.164 43.0557C27.6068 41.2827 26.93 39.5461 26.32 37.7893Z" fill="#222222"/>
</g>
<defs>
<clipPath id="clip0_42_5494">
<rect width="50" height="50" fill="white" transform="translate(0.594727)"/>
</clipPath>
</defs>
</svg>
