<svg width="32" height="32" viewBox="0 0 32 32" fill="none" xmlns="http://www.w3.org/2000/svg">
<path d="M2 1.5C2 0.671573 2.67157 0 3.5 0H18L30 10.5V30.5C30 31.3284 29.3284 32 28.5 32H3.5C2.67157 32 2 31.3284 2 30.5V1.5Z" fill="#D04848"/>
<path d="M21.4039 17.324C21.4039 17.996 21.2419 18.626 20.9179 19.214C20.6059 19.802 20.1079 20.276 19.4239 20.636C18.7519 20.996 17.8999 21.176 16.8679 21.176H14.7619V26H12.2419V13.436H16.8679C17.8399 13.436 18.6679 13.604 19.3519 13.94C20.0359 14.276 20.5459 14.738 20.8819 15.326C21.2299 15.914 21.4039 16.58 21.4039 17.324ZM16.7599 19.142C17.4559 19.142 17.9719 18.986 18.3079 18.674C18.6439 18.35 18.8119 17.9 18.8119 17.324C18.8119 16.1 18.1279 15.488 16.7599 15.488H14.7619V19.142H16.7599Z" fill="white"/>
<path d="M18 10.5V0L30 10.5H18Z" fill="#B43838"/>
</svg>