<?xml version="1.0" encoding="utf-8"?>
<!-- Generator: Adobe Illustrator 25.3.1, SVG Export Plug-In . SVG Version: 6.00 Build 0)  -->
<svg version="1.1" id="图层_1" xmlns="http://www.w3.org/2000/svg" xmlns:xlink="http://www.w3.org/1999/xlink" x="0px" y="0px"
	 viewBox="0 0 32 32" style="enable-background:new 0 0 32 32;" xml:space="preserve">
<style type="text/css">
	.st0{fill:#83ABBF;}
	.st1{fill:#6597AF;}
	.st2{fill:#FFFFFF;}
</style>
<path class="st0" d="M2,1.5C2,0.7,2.7,0,3.5,0H18l12,10.5v20c0,0.8-0.7,1.5-1.5,1.5h-25C2.7,32,2,31.3,2,30.5V1.5z"/>
<path class="st1" d="M18,10.5V0l12,10.5H18z"/>
<path class="st2" d="M10,16.6c0-0.3,0.3-0.6,0.6-0.6h10.8c0.3,0,0.6,0.3,0.6,0.6s-0.3,0.6-0.6,0.6H10.6C10.3,17.2,10,16.9,10,16.6z"
	/>
<path class="st2" d="M10,20.6c0-0.3,0.3-0.6,0.6-0.6h10.8c0.3,0,0.6,0.3,0.6,0.6s-0.3,0.6-0.6,0.6H10.6C10.3,21.2,10,20.9,10,20.6z"
	/>
<path class="st2" d="M10,24.6c0-0.3,0.3-0.6,0.6-0.6h10.8c0.3,0,0.6,0.3,0.6,0.6s-0.3,0.6-0.6,0.6H10.6C10.3,25.2,10,24.9,10,24.6z"
	/>
</svg>
