<svg width="51" height="50" viewBox="0 0 51 50" fill="none" xmlns="http://www.w3.org/2000/svg">
<g clip-path="url(#clip0_42_5496)">
<path d="M50.849 47.5863L44.2004 34.2535C43.9179 33.6897 43.3432 33.3334 42.7151 33.3334H9.47121C8.84313 33.3334 8.26844 33.6897 7.98588 34.2535L1.33624 47.5863C1.07709 48.1032 1.10741 48.7167 1.4098 49.2068C1.71242 49.6967 2.24754 50.0001 2.82268 50.0001H49.3636C49.9387 50.0001 50.4736 49.6999 50.7799 49.2102C51.0819 48.7165 51.1054 48.1068 50.849 47.5863Z" fill="#FF9800"/>
<path d="M39.3901 35.0002C39.3901 39.8664 27.4562 40.0001 26.0931 40.0001C24.73 40.0001 12.7956 39.8664 12.7956 35.0002C12.7956 34.8668 12.8292 34.7002 12.8625 34.5669L15.1562 26.1332C16.7847 27.4004 21.0733 28.3334 26.0932 28.3334C31.1132 28.3334 35.4015 27.4004 37.0301 26.1332L39.3237 34.5669C39.3572 34.7001 39.3901 34.8668 39.3901 35.0002Z" fill="#FCFCFC"/>
<path d="M34.6032 17.267C32.5092 17.9329 29.4507 18.3331 26.0931 18.3331C22.7356 18.3331 19.6771 17.9328 17.583 17.267L20.1426 7.86636C21.8709 8.16619 23.9322 8.33305 26.0931 8.33305C28.254 8.33305 30.3152 8.1663 32.0437 7.86636L34.6032 17.267Z" fill="#FCFCFC"/>
<path d="M26.0931 8.33305C23.9322 8.33305 21.8709 8.16619 20.1426 7.86636L21.3061 3.63285C21.9376 1.40029 23.8327 0.00012207 26.093 0.00012207C28.3533 0.00012207 30.2482 1.40029 30.8797 3.59997L32.0437 7.86636C30.3152 8.1663 28.254 8.33305 26.0931 8.33305Z" fill="#FF9800"/>
<path d="M37.0301 26.1332C35.4015 27.4004 31.1132 28.3334 26.0932 28.3334C21.0733 28.3334 16.7847 27.4004 15.1562 26.1332L17.583 17.267C19.6771 17.9328 22.7356 18.3331 26.0931 18.3331C29.4507 18.3331 32.5092 17.9329 34.6032 17.267L37.0301 26.1332Z" fill="#FF9800"/>
</g>
<defs>
<clipPath id="clip0_42_5496">
<rect width="50" height="50" fill="white" transform="translate(0.594727)"/>
</clipPath>
</defs>
</svg>
