<svg width="40" height="40" viewBox="0 0 40 40" fill="none" xmlns="http://www.w3.org/2000/svg">
<rect width="40" height="40" fill="#888888" fill-opacity="0.19"/>
<g opacity="0.3">
<path d="M20 10.662C22.1964 10.6465 24.3093 11.5032 25.8754 13.0441C27.4415 14.5851 28.333 16.6845 28.3544 18.8821C28.3491 20.3055 27.9734 21.703 27.2643 22.937C26.6387 24.0257 25.7727 24.954 24.7349 25.6525C24.5577 25.7718 24.3284 25.6323 24.3417 25.419L24.4191 24.1809C24.4237 24.1068 24.4592 24.0381 24.516 23.9902C25.2434 23.3751 25.8319 22.6118 26.242 21.7507C26.6688 20.8545 26.8916 19.8748 26.8944 18.8821C26.8761 17.0699 26.1398 15.3391 24.8471 14.0696C23.5545 12.8001 21.8112 12.0958 20 12.1112C18.1888 12.0958 16.4455 12.8001 15.1529 14.0696C13.8602 15.3391 13.1239 17.0699 13.1056 18.8821C13.1088 19.8639 13.3262 20.8332 13.7424 21.7223C14.1432 22.5783 14.719 23.3401 15.4322 23.9586C15.4853 24.0047 15.5193 24.0691 15.5258 24.1392L15.642 25.403C15.6619 25.6191 15.4303 25.7648 15.2504 25.6435C14.2176 24.9474 13.3556 24.0228 12.7327 22.9387C12.0234 21.7044 11.6486 20.306 11.6456 18.8821C11.667 16.6845 12.5585 14.5851 14.1246 13.0441C15.6907 11.5032 17.8036 10.6465 20 10.662ZM20 6.91711C21.5841 6.90335 23.1553 7.20192 24.6241 7.79578C26.0928 8.38964 27.4303 9.26716 28.5601 10.3782C29.6899 11.4893 30.5899 12.8121 31.2087 14.2713C31.8275 15.7304 32.153 17.2971 32.1667 18.8821C32.1651 21.3299 31.4133 23.7183 30.0126 25.7252C28.612 27.732 26.6298 29.2607 24.3337 30.1051C24.1965 30.1545 24.0535 30.0476 24.062 29.9021L24.1268 28.8008C24.1328 28.6981 24.1975 28.6083 24.2922 28.5681C26.1573 27.7759 27.7551 26.4605 28.8915 24.779C30.0593 23.051 30.6871 21.0145 30.6951 18.9285C30.689 17.5309 30.4073 16.1482 29.8661 14.8598C29.3249 13.5713 28.5349 12.4025 27.5413 11.4201C26.5477 10.4378 25.3701 9.66138 24.076 9.13536C22.7819 8.60934 21.3968 8.34407 20 8.35477C17.187 8.33315 14.4804 9.42979 12.475 11.4037C10.4696 13.3777 9.32941 16.0675 9.30492 18.8821C9.31405 20.983 9.95121 23.0332 11.1344 24.7687C12.287 26.4594 13.9063 27.7762 15.7933 28.5597C15.8857 28.5981 15.9504 28.6838 15.9599 28.7835L16.0636 29.8779C16.077 30.0191 15.9272 30.1179 15.8026 30.05C13.5091 29.2687 11.6479 27.8652 10.1999 25.9216C8.7518 23.978 7.92667 21.6408 7.83333 19.2183V18.8821C7.84697 17.2971 8.17249 15.7304 8.79132 14.2713C9.41014 12.8121 10.3101 11.4893 11.4399 10.3782C12.5697 9.26716 13.9072 8.38964 15.3759 7.79578C16.8447 7.20192 18.4159 6.90335 20 6.91711Z" fill="#888888"/>
<path d="M20 15.1373C20.5706 15.1396 21.1278 15.3111 21.601 15.6302C22.0742 15.9494 22.4422 16.4017 22.6584 16.9301C22.8747 17.4585 22.9295 18.0392 22.8159 18.5987C22.7023 19.1583 22.4255 19.6716 22.0204 20.0737C21.6152 20.4758 21.1 20.7487 20.5399 20.8578C19.9798 20.967 19.3999 20.9075 18.8736 20.6868C18.3472 20.4662 17.8981 20.0944 17.583 19.6184C17.2679 19.1424 17.1009 18.5835 17.1032 18.0126C17.1093 17.2479 17.4172 16.5166 17.9598 15.978C18.5024 15.4394 19.2357 15.1372 20 15.1373ZM20.5794 22.0473C20.9086 22.0449 21.2345 22.1127 21.5355 22.2463C21.8365 22.3798 22.1055 22.5759 22.3248 22.8217C22.5441 23.0674 22.7085 23.357 22.8071 23.6713C22.9058 23.9856 22.9363 24.3173 22.8968 24.6443L22.1552 31.8558C22.1012 32.315 21.8866 32.7402 21.5495 33.0563C21.2123 33.3725 20.7743 33.5591 20.3129 33.5833H19.6871C19.2136 33.5754 18.7589 33.396 18.4073 33.0784C18.0558 32.7608 17.8312 32.3264 17.7752 31.8558L17.0337 24.6443C16.9941 24.3173 17.0247 23.9856 17.1234 23.6713C17.222 23.357 17.3864 23.0674 17.6057 22.8217C17.8249 22.5759 18.094 22.3798 18.395 22.2463C18.696 22.1127 19.0219 22.0449 19.3511 22.0473H20.5794Z" fill="#888888"/>
</g>
</svg>
