<?xml version="1.0" encoding="utf-8"?>
<!-- Generator: Adobe Illustrator 25.3.1, SVG Export Plug-In . SVG Version: 6.00 Build 0)  -->
<svg version="1.1" id="图层_1" xmlns="http://www.w3.org/2000/svg" xmlns:xlink="http://www.w3.org/1999/xlink" x="0px" y="0px"
	 viewBox="0 0 64 64" style="enable-background:new 0 0 64 64;" xml:space="preserve">
<style type="text/css">
	.st0{fill:#570DF8;}
	.st1{fill:#FFFFFF;}
</style>
<path class="st0" d="M14,0h36c7.7,0,14,6.3,14,14v36c0,7.7-6.3,14-14,14H14C6.3,64,0,57.7,0,50V14C0,6.3,6.3,0,14,0z"/>
<path class="st1" d="M32,14.5c4.1,0,8.1,1.6,11,4.5c2.9,2.9,4.6,6.8,4.7,11c0,2.7-0.7,5.3-2,7.6c-1.2,2-2.8,3.8-4.7,5.1
	c-0.3,0.2-0.8,0-0.7-0.4l0.1-2.3c0-0.1,0.1-0.3,0.2-0.4c1.4-1.2,2.5-2.6,3.2-4.2c0.8-1.7,1.2-3.5,1.2-5.4c0-3.4-1.4-6.7-3.8-9
	s-5.7-3.7-9.1-3.7c-3.4,0-6.7,1.3-9.1,3.7c-2.4,2.4-3.8,5.6-3.8,9c0,1.8,0.4,3.7,1.2,5.3c0.8,1.6,1.8,3,3.2,4.2
	c0.1,0.1,0.2,0.2,0.2,0.3l0.2,2.4c0,0.4-0.4,0.7-0.7,0.5c-1.9-1.3-3.6-3-4.7-5.1c-1.3-2.3-2-4.9-2-7.6c0-4.1,1.7-8.1,4.7-11
	C23.9,16.1,27.9,14.5,32,14.5z M32,7.5c3,0,5.9,0.5,8.7,1.6c2.8,1.1,5.3,2.8,7.4,4.8c2.1,2.1,3.8,4.6,5,7.3c1.2,2.7,1.8,5.7,1.8,8.7
	c0,4.6-1.4,9.1-4,12.8c-2.6,3.8-6.4,6.6-10.7,8.2c-0.3,0.1-0.5-0.1-0.5-0.4l0.1-2.1c0-0.2,0.1-0.4,0.3-0.4c3.5-1.5,6.5-4,8.6-7.1
	c2.2-3.2,3.4-7.1,3.4-11c0-2.6-0.5-5.2-1.6-7.6c-1-2.4-2.5-4.6-4.4-6.5c-1.9-1.8-4.1-3.3-6.5-4.3c-2.4-1-5-1.5-7.7-1.5
	c-5.3,0-10.4,2-14.1,5.7c-3.8,3.7-5.9,8.8-6,14c0,3.9,1.2,7.8,3.4,11.1c2.2,3.2,5.2,5.6,8.7,7.1c0.2,0.1,0.3,0.2,0.3,0.4l0.2,2.1
	c0,0.3-0.3,0.5-0.5,0.3c-4.3-1.5-7.8-4.1-10.5-7.8c-2.7-3.6-4.3-8-4.4-12.6v-0.6c0-3,0.6-5.9,1.8-8.7c1.2-2.7,2.9-5.2,5-7.3
	c2.1-2.1,4.6-3.7,7.4-4.8C26.1,8,29,7.4,32,7.5z"/>
<path class="st1" d="M32,22.9c1.1,0,2.1,0.3,3,0.9c0.9,0.6,1.6,1.4,2,2.4c0.4,1,0.5,2.1,0.3,3.1c-0.2,1.1-0.7,2-1.5,2.8
	c-0.8,0.8-1.7,1.3-2.8,1.5c-1.1,0.2-2.1,0.1-3.1-0.3c-1-0.4-1.8-1.1-2.4-2c-0.6-0.9-0.9-1.9-0.9-3c0-1.4,0.6-2.8,1.6-3.8
	C29.2,23.5,30.6,22.9,32,22.9z M33.1,35.9c0.6,0,1.2,0.1,1.8,0.4c0.6,0.3,1.1,0.6,1.5,1.1c0.4,0.5,0.7,1,0.9,1.6
	c0.2,0.6,0.2,1.2,0.2,1.8L36,54.3c-0.1,0.9-0.5,1.7-1.1,2.3c-0.6,0.6-1.5,0.9-2.3,1h-1.2c-0.9,0-1.7-0.4-2.4-0.9
	c-0.7-0.6-1.1-1.4-1.2-2.3l-1.4-13.5c-0.1-0.6,0-1.2,0.2-1.8c0.2-0.6,0.5-1.1,0.9-1.6c0.4-0.5,0.9-0.8,1.5-1.1
	c0.6-0.3,1.2-0.4,1.8-0.4H33.1z"/>
</svg>
