<svg width="16" height="16" viewBox="0 0 16 16" fill="none" xmlns="http://www.w3.org/2000/svg">
<path fill-rule="evenodd" clip-rule="evenodd" d="M2.58579 1.25247C2.96086 0.877401 3.46957 0.666687 4 0.666687H9.33333C9.51014 0.666687 9.67971 0.736925 9.80474 0.861949L13.8047 4.86195C13.9298 4.98697 14 5.15654 14 5.33335V13.3334C14 13.8638 13.7893 14.3725 13.4142 14.7476C13.0391 15.1226 12.5304 15.3334 12 15.3334H4C3.46957 15.3334 2.96086 15.1226 2.58579 14.7476C2.21071 14.3725 2 13.8638 2 13.3334V2.66669C2 2.13625 2.21071 1.62755 2.58579 1.25247ZM4 2.00002C3.82319 2.00002 3.65362 2.07026 3.5286 2.19528C3.40357 2.32031 3.33333 2.48988 3.33333 2.66669V13.3334C3.33333 13.5102 3.40357 13.6797 3.5286 13.8048C3.65362 13.9298 3.82319 14 4 14H12C12.1768 14 12.3464 13.9298 12.4714 13.8048C12.5964 13.6797 12.6667 13.5102 12.6667 13.3334V6.00002H9.33333C9.15652 6.00002 8.98695 5.92978 8.86193 5.80476C8.7369 5.67973 8.66667 5.51016 8.66667 5.33335L8.66667 2.00002H4ZM10 2.94283L11.7239 4.66669L10 4.66669L10 2.94283ZM4.66667 6.00002C4.66667 5.63183 4.96514 5.33335 5.33333 5.33335H6.66667C7.03486 5.33335 7.33333 5.63183 7.33333 6.00002C7.33333 6.36821 7.03486 6.66669 6.66667 6.66669H5.33333C4.96514 6.66669 4.66667 6.36821 4.66667 6.00002ZM4.66667 8.66669C4.66667 8.2985 4.96514 8.00002 5.33333 8.00002H10.6667C11.0349 8.00002 11.3333 8.2985 11.3333 8.66669C11.3333 9.03488 11.0349 9.33335 10.6667 9.33335H5.33333C4.96514 9.33335 4.66667 9.03488 4.66667 8.66669ZM4.66667 11.3334C4.66667 10.9652 4.96514 10.6667 5.33333 10.6667H10.6667C11.0349 10.6667 11.3333 10.9652 11.3333 11.3334C11.3333 11.7015 11.0349 12 10.6667 12H5.33333C4.96514 12 4.66667 11.7015 4.66667 11.3334Z" fill="white"/>
</svg>