<svg width="16" height="16" viewBox="0 0 16 16" fill="none" xmlns="http://www.w3.org/2000/svg">
<path fill-rule="evenodd" clip-rule="evenodd" d="M8 1.00006C8.3866 1.00006 8.7 1.31346 8.7 1.70006L8.7 8.41011L11.005 6.10509C11.2784 5.83172 11.7216 5.83172 11.995 6.10509C12.2683 6.37845 12.2683 6.82167 11.995 7.09504L8.49497 10.595C8.22161 10.8684 7.77839 10.8684 7.50502 10.595L4.00502 7.09504C3.73166 6.82167 3.73166 6.37845 4.00502 6.10509C4.27839 5.83172 4.72161 5.83172 4.99497 6.10509L7.3 8.41011L7.3 1.70006C7.3 1.31346 7.6134 1.00006 8 1.00006ZM1.7 9.40006C2.0866 9.40006 2.4 9.71346 2.4 10.1001V12.9001C2.4 13.0857 2.47375 13.2638 2.60503 13.395C2.7363 13.5263 2.91435 13.6001 3.1 13.6001H12.9C13.0857 13.6001 13.2637 13.5263 13.395 13.395C13.5263 13.2638 13.6 13.0857 13.6 12.9001V10.1001C13.6 9.71346 13.9134 9.40006 14.3 9.40006C14.6866 9.40006 15 9.71346 15 10.1001V12.9001C15 13.457 14.7788 13.9912 14.3849 14.385C13.9911 14.7788 13.457 15.0001 12.9 15.0001H3.1C2.54304 15.0001 2.0089 14.7788 1.61508 14.385C1.22125 13.9912 1 13.457 1 12.9001V10.1001C1 9.71346 1.3134 9.40006 1.7 9.40006Z" fill="white" fill-opacity="0.3"/>
</svg>