<svg width="16" height="16" viewBox="0 0 16 16" fill="none" xmlns="http://www.w3.org/2000/svg">
<g clip-path="url(#clip0_244_165)">
<path fill-rule="evenodd" clip-rule="evenodd" d="M8.51691 1.83378C9.27132 1.10515 10.2817 0.701975 11.3305 0.711089C12.3793 0.720202 13.3826 1.14088 14.1242 1.88251C14.8658 2.62414 15.2865 3.62739 15.2956 4.67618C15.3047 5.72497 14.9015 6.73538 14.1729 7.48978L14.1649 7.49812L12.1649 9.49796C11.7594 9.90362 11.2714 10.2173 10.734 10.4178C10.1965 10.6183 9.62231 10.7008 9.0502 10.6598C8.47808 10.6189 7.92147 10.4553 7.41812 10.1803C6.91476 9.90531 6.47644 9.52527 6.13288 9.06596C5.91234 8.77113 5.97257 8.35334 6.2674 8.1328C6.56223 7.91226 6.98002 7.97249 7.20056 8.26732C7.4296 8.57353 7.72182 8.82689 8.05739 9.01023C8.39296 9.19356 8.76403 9.30259 9.14544 9.3299C9.52685 9.35722 9.90967 9.30219 10.2679 9.16854C10.6262 9.0349 10.9516 8.82576 11.2219 8.55532L13.2177 6.55957C13.701 6.05706 13.9684 5.38514 13.9623 4.68777C13.9562 3.98857 13.6758 3.31974 13.1814 2.82532C12.687 2.3309 12.0181 2.05045 11.3189 2.04437C10.6213 2.03831 9.94906 2.30591 9.44647 2.78967L8.30341 3.92609C8.04231 4.18568 7.6202 4.18445 7.36061 3.92334C7.10102 3.66223 7.10225 3.24012 7.36336 2.98053L8.51691 1.83378Z" fill="white"/>
<path fill-rule="evenodd" clip-rule="evenodd" d="M5.26615 5.58217C5.80356 5.3817 6.37779 5.29915 6.94991 5.34012C7.52202 5.3811 8.07863 5.54463 8.58199 5.81964C9.08534 6.09465 9.52367 6.47469 9.86723 6.93399C10.0878 7.22882 10.0275 7.64662 9.7327 7.86715C9.43787 8.08769 9.02008 8.02746 8.79954 7.73263C8.5705 7.42643 8.27828 7.17307 7.94271 6.98973C7.60714 6.80639 7.23607 6.69737 6.85466 6.67005C6.47325 6.64274 6.09043 6.69777 5.73216 6.83141C5.37389 6.96506 5.04855 7.17419 4.77821 7.44463L2.78245 9.44039C2.29909 9.94291 2.03172 10.6148 2.03778 11.3122C2.04386 12.0114 2.32431 12.6802 2.81873 13.1746C3.31315 13.6691 3.98198 13.9495 4.68117 13.9556C5.37854 13.9616 6.05046 13.6943 6.55298 13.2109L7.68865 12.0752C7.949 11.8149 8.37111 11.8149 8.63145 12.0752C8.8918 12.3356 8.8918 12.7577 8.63146 13.018L7.48326 14.1662C6.72885 14.8949 5.71837 15.298 4.66959 15.2889C3.6208 15.2798 2.61755 14.8591 1.87592 14.1174C1.13429 13.3758 0.713611 12.3726 0.704497 11.3238C0.695383 10.275 1.09856 9.26458 1.82719 8.51017L1.83524 8.50183L3.83523 6.50199V6.50199C4.24072 6.09638 4.72878 5.78262 5.26615 5.58217Z" fill="white"/>
</g>
<defs>
<clipPath id="clip0_244_165">
<rect width="16" height="16" fill="white"/>
</clipPath>
</defs>
</svg>